<?xml version="1.0" encoding="UTF-8"?>
<svg width="165px" height="38px" viewBox="0 0 165 38" version="1.1" xmlns="http://www.w3.org/2000/svg" xmlns:xlink="http://www.w3.org/1999/xlink">
    <!-- Generator: sketchtool 63.1 (101010) - https://sketch.com -->
    <title>10C54307-886D-4555-8449-84437938AB11</title>
    <desc>Created with sketchtool.</desc>
    <defs>
        <polygon id="path-1" points="0 0 27.1747334 0 27.1747334 38 0 38"></polygon>
    </defs>
    <g id="Landing" stroke="none" stroke-width="1" fill="none" fill-rule="evenodd">
        <g id="HOME-Alt" transform="translate(-764.000000, -2989.000000)">
            <g id="Group-38" transform="translate(764.000000, 2989.000000)">
                <g id="Group-3">
                    <mask id="mask-2" fill="white">
                        <use xlink:href="#path-1"></use>
                    </mask>
                    <g id="Clip-2"></g>
                    <path d="M20.8167,36.712 L20.8167,31.49 L25.7367,31.49 L20.8167,36.712 Z M1.2117,36.865 L7.4187,36.865 L7.4187,34.064 L1.2117,34.064 L1.2117,36.865 Z M1.2107,20.816 L7.4177,20.816 L7.4177,18.015 L1.2107,18.015 L1.2107,20.816 Z M1.2117,32.852 L7.4187,32.852 L7.4187,30.051 L1.2117,30.051 L1.2117,32.852 Z M1.2107,24.829 L7.4177,24.829 L7.4177,22.028 L1.2107,22.028 L1.2107,24.829 Z M1.2117,28.841 L7.4187,28.841 L7.4187,26.04 L1.2117,26.04 L1.2117,28.841 Z M19.1507,18.02 L22.6337,18.02 L25.9667,21.353 L25.9667,30.286 L20.2887,30.286 C19.9637,30.308 19.7057,30.566 19.6837,30.891 L19.6837,36.789 L8.6297,36.789 L8.6297,18.011 L19.1507,18.02 Z M5.0707,6.131 L7.4177,2.576 L7.4177,9.764 L5.0707,6.131 Z M4.3147,7.191 L6.8887,11.128 L1.7407,11.128 L4.3147,7.191 Z M1.8167,1.211 L6.8887,1.211 L4.3147,5 L1.8167,1.211 Z M1.2117,2.347 L3.6337,6.056 L1.2117,9.689 L1.2117,2.347 Z M26.9477,20.741 L23.2387,17.032 C23.1127,16.925 22.9497,16.871 22.7847,16.881 L20.5147,16.881 L23.2397,14.155 C23.3477,14.029 23.4017,13.866 23.3917,13.701 L23.3917,4.315 C23.3757,4.153 23.3237,3.998 23.2397,3.86 L19.5297,0.151 C19.4267,0.056 19.2917,0.003 19.1507,-7.01275284e-05 L0.6057,-7.01275284e-05 C0.2757,-0.005 0.0047,0.258 0.0007,0.587 C-5e-05,0.594 -5e-05,0.6 0.0007,0.606 L0.0007,11.733 C0.0227,12.058 0.2807,12.317 0.6057,12.339 L8.0247,12.339 C8.3497,12.317 8.6087,12.058 8.6297,11.733 L8.6297,1.211 L18.9247,1.211 L22.2577,4.545 L22.2577,13.477 L18.9247,16.81 L0.6057,16.81 C0.2827,16.832 0.0247,17.087 0.0007,17.41 L0.0007,37.395 C0.0227,37.719 0.2807,37.978 0.6057,38 L20.9677,38 C21.1287,37.984 21.2837,37.933 21.4217,37.849 L27.0237,32.02 C27.1177,31.916 27.1717,31.781 27.1747334,31.641 L27.1747334,21.119 C27.1767,20.96 27.0887,20.814 26.9477,20.741 L26.9477,20.741 Z" id="Fill-1" fill="#fff" mask="url(#mask-2)"></path>
                </g>
                <path d="M42.8382,13.4796 C43.5392,13.4796 44.0992,12.9336 44.0992,12.2056 C44.0992,11.5046 43.3992,10.9866 42.6702,10.9866 L41.1432,10.9866 L41.1432,13.4796 L42.8382,13.4796 Z M42.6422,9.4456 C43.3572,9.4456 43.8472,8.8856 43.8472,8.1856 C43.8472,7.4846 43.3572,6.9946 42.6422,6.9946 L41.1432,6.9946 L41.1432,9.4456 L42.6422,9.4456 Z M39.3372,5.5936 C39.3372,5.4536 39.4482,5.3276 39.6032,5.3276 L42.8102,5.3276 C44.4772,5.3276 45.7662,6.4486 45.7662,7.9186 C45.7662,8.9976 44.8832,9.8376 44.2252,10.1466 C44.9672,10.3836 46.0462,11.1406 46.0462,12.4296 C46.0462,13.9986 44.7012,15.1326 42.9922,15.1326 L39.6032,15.1326 C39.4482,15.1326 39.3372,15.0066 39.3372,14.8666 L39.3372,5.5936 Z" id="Fill-4" fill="#fff"></path>
                <path d="M54.6536,5.5939 C54.6536,5.4529 54.7656,5.3269 54.9196,5.3269 L56.2086,5.3269 C56.3486,5.3269 56.4746,5.4529 56.4746,5.5939 L56.4746,13.4519 L60.0466,13.4519 C60.2006,13.4519 60.3126,13.5779 60.3126,13.7179 L60.3126,14.8659 C60.3126,15.0069 60.2006,15.1329 60.0466,15.1329 L54.9196,15.1329 C54.7656,15.1329 54.6536,15.0069 54.6536,14.8659 L54.6536,5.5939 Z" id="Fill-6" fill="#fff"></path>
                <path d="M67.9563,5.5939 C67.9563,5.4529 68.0823,5.3269 68.2223,5.3269 L69.5533,5.3269 C69.7073,5.3269 69.8193,5.4529 69.8193,5.5939 L69.8193,11.3229 C69.8193,12.5139 70.6313,13.4519 71.8503,13.4519 C73.0693,13.4519 73.8953,12.5139 73.8953,11.3369 L73.8953,5.5939 C73.8953,5.4529 74.0073,5.3269 74.1613,5.3269 L75.4923,5.3269 C75.6323,5.3269 75.7583,5.4529 75.7583,5.5939 L75.7583,11.4209 C75.7583,13.5499 74.0633,15.2729 71.8503,15.2729 C69.6513,15.2729 67.9563,13.5499 67.9563,11.4209 L67.9563,5.5939 Z" id="Fill-8" fill="#fff"></path>
                <path d="M84.7971,5.5939 C84.7971,5.4529 84.9091,5.3269 85.0631,5.3269 L90.7641,5.3269 C90.9181,5.3269 91.0301,5.4529 91.0301,5.5939 L91.0301,6.7419 C91.0301,6.8829 90.9181,7.0089 90.7641,7.0089 L86.6181,7.0089 L86.6181,9.3059 L90.0781,9.3059 C90.2181,9.3059 90.3441,9.4319 90.3441,9.5729 L90.3441,10.7349 C90.3441,10.8889 90.2181,11.0009 90.0781,11.0009 L86.6181,11.0009 L86.6181,13.4519 L90.7641,13.4519 C90.9181,13.4519 91.0301,13.5779 91.0301,13.7179 L91.0301,14.8659 C91.0301,15.0069 90.9181,15.1329 90.7641,15.1329 L85.0631,15.1329 C84.9091,15.1329 84.7971,15.0069 84.7971,14.8659 L84.7971,5.5939 Z" id="Fill-10" fill="#fff"></path>
                <path d="M103.1375,9.8663 C103.9215,9.8663 104.5795,9.2353 104.5795,8.4093 C104.5795,7.6383 103.9215,7.0513 103.1375,7.0513 L101.5125,7.0513 L101.5125,9.8663 L103.1375,9.8663 Z M99.6915,5.5943 C99.6915,5.4533 99.8035,5.3273 99.9575,5.3273 L103.2495,5.3273 C104.9725,5.3273 106.3875,6.7283 106.3875,8.4233 C106.3875,10.1603 104.9725,11.5753 103.2635,11.5753 L101.5125,11.5753 L101.5125,14.8663 C101.5125,15.0073 101.3865,15.1333 101.2465,15.1333 L99.9575,15.1333 C99.8035,15.1333 99.6915,15.0073 99.6915,14.8663 L99.6915,5.5943 Z" id="Fill-12" fill="#fff"></path>
                <path d="M118.6243,9.796 C119.3663,9.796 120.0113,9.151 120.0113,8.367 C120.0113,7.625 119.3663,7.009 118.6243,7.009 L116.3413,7.009 L116.3413,9.796 L118.6243,9.796 Z M114.5063,5.594 C114.5063,5.453 114.6183,5.327 114.7723,5.327 L118.7783,5.327 C120.4593,5.327 121.8323,6.672 121.8323,8.339 C121.8323,9.628 120.9773,10.679 119.7583,11.169 L121.6783,14.727 C121.7753,14.908 121.6783,15.133 121.4393,15.133 L119.9693,15.133 C119.8423,15.133 119.7723,15.063 119.7453,15.007 L117.8813,11.295 L116.3273,11.295 L116.3273,14.866 C116.3273,15.007 116.2013,15.133 116.0613,15.133 L114.7723,15.133 C114.6183,15.133 114.5063,15.007 114.5063,14.866 L114.5063,5.594 Z" id="Fill-14" fill="#fff"></path>
                <path d="M130.4495,5.5939 C130.4495,5.4529 130.5755,5.3269 130.7155,5.3269 L132.0185,5.3269 C132.1575,5.3269 132.2845,5.4529 132.2845,5.5939 L132.2845,14.8659 C132.2845,15.0069 132.1575,15.1329 132.0185,15.1329 L130.7155,15.1329 C130.5755,15.1329 130.4495,15.0069 130.4495,14.8659 L130.4495,5.5939 Z" id="Fill-16" fill="#fff"></path>
                <path d="M141.4099,5.4396 C141.4099,5.2996 141.5359,5.1876 141.6759,5.1876 L142.0259,5.1876 L147.8529,11.3786 L147.8669,11.3786 L147.8669,5.5936 C147.8669,5.4536 147.9789,5.3276 148.1339,5.3276 L149.4219,5.3276 C149.5619,5.3276 149.6879,5.4536 149.6879,5.5936 L149.6879,15.0206 C149.6879,15.1616 149.5619,15.2726 149.4219,15.2726 L149.0859,15.2726 L143.2309,8.8436 L143.2169,8.8436 L143.2169,14.8666 C143.2169,15.0066 143.1049,15.1326 142.9509,15.1326 L141.6759,15.1326 C141.5359,15.1326 141.4099,15.0066 141.4099,14.8666 L141.4099,5.4396 Z" id="Fill-18" fill="#fff"></path>
                <path d="M160.1043,7.0089 L157.9613,7.0089 C157.8073,7.0089 157.6953,6.8829 157.6953,6.7419 L157.6953,5.5939 C157.6953,5.4529 157.8073,5.3269 157.9613,5.3269 L164.0823,5.3269 C164.2363,5.3269 164.3483,5.4529 164.3483,5.5939 L164.3483,6.7419 C164.3483,6.8829 164.2363,7.0089 164.0823,7.0089 L161.9393,7.0089 L161.9393,14.8659 C161.9393,15.0069 161.8133,15.1329 161.6733,15.1329 L160.3703,15.1329 C160.2303,15.1329 160.1043,15.0069 160.1043,14.8659 L160.1043,7.0089 Z" id="Fill-20" fill="#fff"></path>
                <path d="M43.4548,28.296 C44.1968,28.296 44.8418,27.651 44.8418,26.867 C44.8418,26.125 44.1968,25.509 43.4548,25.509 L41.1718,25.509 L41.1718,28.296 L43.4548,28.296 Z M39.3368,24.094 C39.3368,23.953 39.4488,23.827 39.6028,23.827 L43.6088,23.827 C45.2898,23.827 46.6628,25.172 46.6628,26.839 C46.6628,28.128 45.8078,29.179 44.5888,29.669 L46.5088,33.227 C46.6058,33.408 46.5088,33.633 46.2698,33.633 L44.7998,33.633 C44.6738,33.633 44.6028,33.563 44.5758,33.507 L42.7118,29.795 L41.1578,29.795 L41.1578,33.366 C41.1578,33.507 41.0318,33.633 40.8918,33.633 L39.6028,33.633 C39.4488,33.633 39.3368,33.507 39.3368,33.366 L39.3368,24.094 Z" id="Fill-22" fill="#fff"></path>
                <path d="M55.2796,24.0939 C55.2796,23.9529 55.3916,23.8269 55.5456,23.8269 L61.2466,23.8269 C61.4006,23.8269 61.5126,23.9529 61.5126,24.0939 L61.5126,25.2419 C61.5126,25.3829 61.4006,25.5089 61.2466,25.5089 L57.1006,25.5089 L57.1006,27.8059 L60.5606,27.8059 C60.7006,27.8059 60.8266,27.9319 60.8266,28.0729 L60.8266,29.2349 C60.8266,29.3889 60.7006,29.5009 60.5606,29.5009 L57.1006,29.5009 L57.1006,31.9519 L61.2466,31.9519 C61.4006,31.9519 61.5126,32.0779 61.5126,32.2179 L61.5126,33.3659 C61.5126,33.5069 61.4006,33.6329 61.2466,33.6329 L55.5456,33.6329 C55.3916,33.6329 55.2796,33.5069 55.2796,33.3659 L55.2796,24.0939 Z" id="Fill-24" fill="#fff"></path>
                <path d="M74.3372,23.6876 C75.5982,23.6876 76.8022,24.1776 77.7552,24.9906 C77.8672,25.1026 77.8812,25.2706 77.7692,25.3826 L76.9002,26.2926 C76.7882,26.4056 76.6622,26.4056 76.5362,26.2926 C75.9342,25.7606 75.1912,25.4806 74.4212,25.4806 C72.6702,25.4806 71.2832,26.9796 71.2832,28.7306 C71.2832,30.4666 72.6702,31.9376 74.4352,31.9376 C75.2192,31.9376 75.8222,31.7006 76.1022,31.5876 L76.1022,30.3976 L74.9822,30.3976 C74.8272,30.3976 74.7152,30.2856 74.7152,30.1446 L74.7152,29.0386 C74.7152,28.8836 74.8272,28.7726 74.9822,28.7726 L77.6712,28.7726 C77.8112,28.7726 77.9232,28.8986 77.9232,29.0386 L77.9232,32.6246 C77.9232,32.7366 77.8672,32.8066 77.8112,32.8486 C77.8112,32.8486 76.3682,33.7586 74.3372,33.7586 C71.5492,33.7586 69.3082,31.5456 69.3082,28.7446 C69.3082,25.9426 71.5492,23.6876 74.3372,23.6876" id="Fill-26" fill="#fff"></path>
                <path d="M86.7205,24.0939 C86.7205,23.9529 86.8465,23.8269 86.9865,23.8269 L88.2895,23.8269 C88.4285,23.8269 88.5555,23.9529 88.5555,24.0939 L88.5555,33.3659 C88.5555,33.5069 88.4285,33.6329 88.2895,33.6329 L86.9865,33.6329 C86.8465,33.6329 86.7205,33.5069 86.7205,33.3659 L86.7205,24.0939 Z" id="Fill-28" fill="#fff"></path>
                <path d="M97.1751,32.2599 L97.6791,31.3919 C97.7921,31.1959 98.0291,31.1959 98.1561,31.2939 C98.2261,31.3359 99.3611,32.1619 100.2711,32.1619 C100.9991,32.1619 101.5461,31.6859 101.5461,31.0829 C101.5461,30.3689 100.9431,29.8789 99.7671,29.4029 C98.4501,28.8699 97.1331,28.0299 97.1331,26.3769 C97.1331,25.1299 98.0581,23.6879 100.2851,23.6879 C101.7141,23.6879 102.8061,24.4159 103.0871,24.6259 C103.2261,24.7099 103.2681,24.9479 103.1711,25.0879 L102.6381,25.8869 C102.5261,26.0549 102.3161,26.1669 102.1481,26.0549 C102.0361,25.9849 100.9711,25.2839 100.2011,25.2839 C99.4031,25.2839 98.9681,25.8169 98.9681,26.2649 C98.9681,26.9229 99.4871,27.3709 100.6211,27.8339 C101.9801,28.3799 103.5491,29.1929 103.5491,30.9989 C103.5491,32.4429 102.3021,33.7729 100.3271,33.7729 C98.5621,33.7729 97.5261,32.9469 97.2451,32.6809 C97.1191,32.5549 97.0491,32.4849 97.1751,32.2599" id="Fill-30" fill="#fff"></path>
                <path d="M113.4216,25.5089 L111.2786,25.5089 C111.1246,25.5089 111.0126,25.3829 111.0126,25.2419 L111.0126,24.0939 C111.0126,23.9529 111.1246,23.8269 111.2786,23.8269 L117.3996,23.8269 C117.5536,23.8269 117.6656,23.9529 117.6656,24.0939 L117.6656,25.2419 C117.6656,25.3829 117.5536,25.5089 117.3996,25.5089 L115.2566,25.5089 L115.2566,33.3659 C115.2566,33.5069 115.1306,33.6329 114.9906,33.6329 L113.6876,33.6329 C113.5476,33.6329 113.4216,33.5069 113.4216,33.3659 L113.4216,25.5089 Z" id="Fill-32" fill="#fff"></path>
                <path d="M129.7859,28.296 C130.5279,28.296 131.1729,27.651 131.1729,26.867 C131.1729,26.125 130.5279,25.509 129.7859,25.509 L127.5029,25.509 L127.5029,28.296 L129.7859,28.296 Z M125.6679,24.094 C125.6679,23.953 125.7799,23.827 125.9339,23.827 L129.9399,23.827 C131.6209,23.827 132.9939,25.172 132.9939,26.839 C132.9939,28.128 132.1389,29.179 130.9199,29.669 L132.8399,33.227 C132.9369,33.408 132.8399,33.633 132.6009,33.633 L131.1309,33.633 C131.0049,33.633 130.9339,33.563 130.9069,33.507 L129.0429,29.795 L127.4889,29.795 L127.4889,33.366 C127.4889,33.507 127.3629,33.633 127.2229,33.633 L125.9339,33.633 C125.7799,33.633 125.6679,33.507 125.6679,33.366 L125.6679,24.094 Z" id="Fill-34" fill="#fff"></path>
                <path d="M143.3269,28.9122 L140.1329,24.2332 C140.0209,24.0522 140.1329,23.8272 140.3569,23.8272 L141.7859,23.8272 C141.8979,23.8272 141.9679,23.8972 142.0099,23.9532 L144.2509,27.1762 L146.4929,23.9532 C146.5349,23.8972 146.6049,23.8272 146.7169,23.8272 L148.1599,23.8272 C148.3839,23.8272 148.4949,24.0522 148.3839,24.2332 L145.1479,28.8982 L145.1479,33.3662 C145.1479,33.5072 145.0219,33.6332 144.8819,33.6332 L143.5929,33.6332 C143.4389,33.6332 143.3269,33.5072 143.3269,33.3662 L143.3269,28.9122 Z" id="Fill-36" fill="#fff"></path>
            </g>
        </g>
    </g>
</svg>