<svg xmlns="http://www.w3.org/2000/svg" xmlns:xlink="http://www.w3.org/1999/xlink" width="77" height="78" viewBox="0 0 77 78">
    <defs>
        <path id="prefix__a" d="M0 0.502L76.93 0.502 76.93 77.4 0 77.4z"/>
    </defs>
    <g fill="none" fill-rule="evenodd">
        <path fill="#7B7B7B" d="M44.429 12.077c1.414 0 2.571-1.286 2.571-2.893 0-1.608-1.382-2.83-2.86-2.83-2.123 0-2.67 1.93-2.67 2.861 0 1.608 1.32 2.862 2.959 2.862M31.023 9.601s.418-.064 1.479-.289c1.029-.193 1.479-.707 1.479-1.35-.033-.675-.45-1.575-2.09-1.254l-1.415.257.547 2.636zM57.803 61.617c-.322 0-.45.097-.547.161l-.932.74.868 1.124.9-.707s.353-.257.353-.61c0-.354-.386-.708-.642-.708M34.463 69.783L35.781 69.944 35.299 68.272z"/>
        <g transform="translate(0 .098)">
            <mask id="prefix__b" fill="#fff">
                <use xlink:href="#prefix__a"/>
            </mask>
            <path fill="#7B7B7B" d="M71.272 30.207l-1.832-4.47-2.347.9 1.383 3.57-1.543.546-1.415-3.569-1.543.58 1.929 4.597-1.544.578-2.443-6.301 8.391-3.118 2.411 6.14-1.447.547zM68.54 39.4c0-.515.418-.932.932-.932.515 0 .933.417.933.932 0 .515-.418.932-.933.932-.514 0-.932-.417-.932-.932zm1.125 11.798l-4.693-1.575.353-1.029 3.762 1.222.771-2.347.933.321-1.126 3.408zm-3.054 6.173l-4.308-2.54.579-.933 3.407 1.994 1.254-2.122.836.482-1.768 3.119zm-2.957 3.825l-3.762-3.246.707-.804 3.761 3.214-.706.836zm-3.408 3.183l-1.8-.61-.644.514.965 1.254-.868.675-3.054-3.955 1.832-1.447c.386-.225.74-.417 1.19-.417.964 0 1.607.996 1.607 1.607s-.257.932-.257.932l2.025.643-.996.804zm-8.584 5.047c-1.447 0-2.476-1.254-2.476-2.636 0-1.382 1.223-2.604 2.798-2.604.546 0 .835.129.835.129l-.289 1.06s-.289-.128-.707-.128c-.868 0-1.543.675-1.543 1.479s.579 1.64 1.511 1.64c.932 0 1.478-.804 1.478-.804l-.289-.644-.996.45-.386-.867 1.961-.868.9 1.961c-.386.772-1.35 1.832-2.797 1.832zm-7.458 2.283l-2.669-2.862.29 3.087-1.093.128-.483-4.95 1.03-.097 2.603 2.797-.321-3.022 1.093-.128.514 4.983-.964.064zM15.142 38.95c0-12.892 10.448-23.34 23.34-23.34 12.858 0 23.307 10.448 23.307 23.34S51.34 62.291 38.48 62.291s-23.34-10.448-23.34-23.34zM37.485 72.16l-1.125-.129-.322-1.157-2.09-.257-.578 1.061-1.125-.16 2.7-4.727 1.029.16 1.51 5.209zm-7.652-4.854c-.257-.515-.771-1.03-1.478-1.03s-1.511.58-1.511 1.64c0 1.061.9 1.479 1.414 1.479.515 0 .965-.225.965-.225l.418.932s-.515.354-1.254.354c-1.254 0-2.668-.932-2.668-2.572 0-1.318.996-2.636 2.571-2.636 1.158 0 1.962.675 2.476 1.511l-.933.547zm-7.972.257l-.933-.579 2.637-4.211.932.578-2.636 4.212zm-3.569-2.572l-.996-.868.321-1.993-1.929.514-.964-.836 2.99-.74.45-2.925.932.868-.322 1.897 1.833-.482.964.835-2.861.676-.418 3.054zm-4.822-6.172l-.804.546-2.121-3.15 4.083-2.797 2.121 3.118-.803.546-1.512-2.218-.803.58 1.286 1.928-.804.546-1.318-1.929-.836.58 1.511 2.25zm-5.111-6.88l3.021-1.158-2.475-.546 1.511-2.058-3.022 1.126-.386-.997 4.63-1.736.45 1.093-1.512 1.96 2.412.483.418 1.126-4.63 1.736-.417-1.03zm-.515-13.47c.515 0 .932.417.932.932 0 .515-.417.932-.932.932-.515 0-.932-.417-.932-.932 0-.515.417-.932.932-.932zm1.222-15.785l.771 1.736c-.642.257-2.121.9-2.121 2.604 0 1.704 1.671 2.7 2.99 2.7 1.317 0 2.635-1.092 2.635-2.571 0-.644-.257-1.351-.257-1.351l1.672-.61s.418.739.418 1.896c0 2.057-1.704 4.662-4.598 4.662-2.539 0-4.757-1.897-4.757-4.566 0-1.703 1.253-3.922 3.247-4.5zm3.022-6.526l2.925 2.958 2.83-2.926-2.926-2.99 1.221-1.157 6.334 6.204-1.061 1.286-2.38-2.186-2.86 2.765 2.346 2.25-1.35 1.447-6.462-6.205 1.383-1.446zm10.77-8.487l4.21 7.876-1.51.804-4.18-7.877 1.48-.803zm9.901-2.958c2.09 0 3.279 1.479 3.279 3.118 0 1.672-1.318 2.637-2.829 2.958-1.51.354-2.09.45-2.09.45l.483 2.733-1.736.289-1.737-8.744s4.18-.804 4.63-.804zm11.155-.321c2.669 0 5.176 2.057 5.176 4.95 0 2.38-1.8 4.565-4.5 4.565s-5.24-2.057-5.24-4.918c0-1.865 1.253-4.597 4.564-4.597zm8.616 3.986l.868-1.318 6.494 3.858-.9 1.317-2.219-1.414-3.889 6.269-1.544-.868 3.827-6.301-2.637-1.543zm12.28 7.233l-5.625 4.726 3.118 3.536-1.414 1.06-4.05-4.757 6.75-5.947 1.221 1.382zm12.12 23.34C76.93 17.701 59.7.501 38.481.501c-21.25 0-38.48 17.2-38.48 38.45 0 21.218 17.23 38.45 38.448 38.45 21.25 0 38.481-17.232 38.481-38.45z" mask="url(#prefix__b)"/>
        </g>
        <path fill="#7B7B7B" d="M48.865 28.505s-.643.096-1.157.096h-.9c-.386 0-.418-.16-.418-.16s.996-.708 1.35-1.319c0-.61-.675-1.446-.932-2.379 0 0-1.093.033-2.218.129-1.125.064-1.8.643-1.8.643-.194.29-.708.675-.708.675-.129.16-.74.74-.74.74s.033.225-.031.578c-.033.353-.322 1.157-.29 1.704 0 .386.482.868.482.868.708.096 2.154.128 2.154.128s-.096.386-.257.74c-.16.353-1.19.514-1.19.514s.482.836.643 1.222c.162.385.675.74.675.74.868 1.51 1.318 2.346 1.318 3.15 0 .803-.514 1.768-.514 1.768 0 .579-.386 1.286-.771 1.8-.354.514-.611.9-.804 1.254-.193.354-.515.9-.707 1.254-.193.354-.61.771-.836.932-.225.16-.193.29-.193.29s.707.9.707 1.317c0 .225-.096.354-.096.772 0 .74.29.964.29.964.385-.064.481.065.706.225.387.193 1.062.611 1.254.74.225.128 1.768 1.286 2.154 1.543.354.257.804.257 1.19.482.225.16.9.16.9.836 0 .546-.804 1.897-1.254 2.443-.225.29-.61.386-.61.386-.644.772-.837.74-.837.74-.225 0-.579.064-.868.128-.578.13-1.029-.032-1.479 0-.546.097-.867.032-1.189 0-.322-.032-1.672.064-2.572.064-.9 0-.804 0-1.254-.064-.45-.064-.804-.29-.996-.322-.258 0-.74.033-1.126-.16-.385-.193-.932-.386-1.575-.45-.61-.097-.771-.129-1.028-.579-.258-.45-1.415-2.346-3.215-4.725-1.833-2.38-2.733-3.858-2.894-4.405-.16-.547-.482-2.282-.514-3.343 0-1.06-.032-2.315-.032-3.472 0-1.158.29-1.383.354-1.769.064-.804.225-.996.289-1.318-.033-.45.096-.803.096-.803.45-.354 1.704-1.993 2.733-2.668.868-.644 2.475-.354 3.633-.708-.547-.61-1.286-.836-1.93-.836-.642 0-.932.193-.964.065-.032-.129.515-.29.676-.515.257-.321.578-.289.996-.579 0 0 1.254.258 2.25.611.965.354 1.35.258 1.35.258 3.344-2.958 6.173-5.048 6.173-5.048 1.318-.29 3.954-.514 3.954-.514s.354.161.836.193c.515.032.547.257.547.257.225.418.418.45.578.675.29.514 1.094 1.093 1.094 1.736 0 .964-.483 2.476-.483 2.476M38.45 17.478c-11.927 0-21.603 9.677-21.603 21.571 0 11.895 9.676 21.571 21.603 21.571 11.927 0 21.604-9.644 21.604-21.57 0-11.928-9.677-21.605-21.604-21.572"/>
        <path fill="#7B7B7B" d="M40.25 34.902c.16.257.739.514.835.836.129.321.45.353.45.739s-.9 2.219-1.639 2.797c-.096.547-.482.965-.482.965s-.129.514-.74 1.382c-.45.707-.547 1.318-.547 2.025 0 .708.161 1.35.323 2.026.16.675.385 1.093.546 1.447.16.353.354 1.157.675 1.8.257.61.707 1.029 1.061 1.35.353.321.096.74-.707.74-.9 0-2.348-.836-2.54-1.03-.225-.225-.322-.417-.547-.61-.642-.482-.707-.611-.932-.932-.225-.322-.514-.868-.643-1.03-.771-.9-.965-1.864-1.254-2.217-.289-.354-.514-.675-.707-1.19-.193-.514-.514-1.029-.514-1.029-.322-.354-.354-.675-.419-.835-.225-.483-.32-.708-.32-1.222 0-.482.128-.74.16-.932.032-.193 0-.29 0-.708s.096-.74.193-1.35c.096-.61.128-.868.386-.9.257-.032.835-.193 1.382-.322.547-.128 1.093-.128 1.96-.128.87 0 1.544 1.254 1.544 2.057 0 .322-.29 1.093-.482 1.479-.16.386-.45 1.06-.546 1.222-.097.16-.29.514-.29.804 0 .256-.16.931-.771.931-.61 0-.868-.546-1.062-1.253-.16-.74-.096-.836-.096-.836.193-.707.515-.804.772-.804s.546.29.546.58v.707l.676-1.351c.128-.257.128-.482.128-.482-.032-.418.032-.772.097-1.061.064-.29-.804-.707-.804-.707s-.483 0-.836-.032c-.354-.065-.74-.033-.74-.033-.546.13-.482.643-.578.933-.097.289-.129.546-.129.996 0 .45.097.804.032 1.704 0 .579 0 .708.354 1.286.353.579.804 1.35 1.03 1.8.256.45.835 1.415 1.027 1.865.194.45.225.74.225.74.29.192.386.61.772 1.028.322.386.514.515.772.676.256.16.256.353.61.481.225.097.354 0 .354 0-1.029-1.993-1.383-3.664-1.51-4.05-.13-.354-.098-.29-.226-1.125-.128-.836-.032-1.318 0-1.415.193-.353.322-.74.578-1.35.258-.61.547-1.157.547-1.157s.16-.547.58-1.254c.32-.547.738-1.415.738-1.415.033-.16.129-.385.258-.61.128-.226.064-.354.064-.354s-.322-.193-.676-.483c-.353-.29-.738-.546-1.092-.578-.354-.032-1.704-.322-2.476-.322-.77 0-2.475.483-2.99.61-.514.13-.675.13-.675.13l-.579.77c-.096.13-.064.612-.16.837-.097.225-.065.74-.065 1.415s-.064 1.382-.064 1.929c0 .514.225 1.157.29 1.479.064.289.096.514.096.514s.579 1.157.707 1.736c.161.579.161.675.386 1.029.225.353.418.61.514.835.097.225.322.515.322.515.61.74.546 1.06.546 1.06s-.096-.064-.225-.192c-.128-.129-.257.032-.257.032s-.643-.643-1.543-1.736c-.772-.997-1.222-1.672-1.222-1.672-.128-.353-1.028-1.543-1.028-2.732V38.6c0-1.222.386-2.476.482-3.28.096-.804.611-1.19 1.447-1.254.836-.096 1.703-.128 2.218-.257.547-.129.772-.064.772-.064 1.929.675 2.925.707 3.6.707.675 0 .579-.514.996-.514.547 0 .9.707 1.062.964m-.097-3.022c-.803.257-.932 1.093-1.96 1.093-1.03 0-1.576-.032-1.705-.45-.128-.418-.16-.514-.514-.803-4.565 0-6.365.707-7.137 3.214 0 0 .032.321-.097.965-.128.643-.225 2.09-.257 2.86-.032.773-.032 4.18-.032 4.18s3.28 5.015 5.08 7.234c.385.546 1.125 1.64 2.282 1.8 1.158.16 2.186.129 3.568.29 1.383.128 3.569.064 5.08-1.094 0 0 0-.225.225-.257 0 0-.29-.225-.804-.611-.546-.418-.932-.74-1.22-.868-.29-.129-.516-.16-.644-.418-.16-.257-.547-.546-.804-.514-.257.032-.643.16-.643-.16 0-.322-.032-.997-.032-1.48 0-.482.128-1.19-.097-1.446-.225-.225-.417-.258-.514-.675-.064-.386-.225-1.319-.064-1.575.16-.225.707-1.03.932-1.512.225-.482 2.25-2.797 2.25-4.597.065-1.736-2.057-4.18-2.893-5.176"/>
    </g>
</svg>
