<svg xmlns="http://www.w3.org/2000/svg" xmlns:xlink="http://www.w3.org/1999/xlink" width="133" height="26" viewBox="0 0 133 26">
    <defs>
        <path id="prefix__a" d="M0 0.338L20.089 0.338 20.089 24.574 0 24.574z"/>
        <path id="prefix__c" d="M0 25.114L132.242 25.114 132.242 0.39 0 0.39z"/>
    </defs>
    <g fill="none" fill-rule="evenodd">
        <path fill="#7B7B7B" d="M125.233 21.61c0-1.935 1.57-3.504 3.505-3.504 1.935 0 3.504 1.57 3.504 3.505 0 1.935-1.57 3.503-3.504 3.503s-3.505-1.569-3.505-3.503"/>
        <g transform="translate(0 .154)">
            <mask id="prefix__b" fill="#fff">
                <use xlink:href="#prefix__a"/>
            </mask>
            <path fill="#7B7B7B" d="M20.089 11.943c0 4.044-1.087 7.16-3.262 9.348-2.174 2.189-5.23 3.283-9.171 3.283H0V.338h8.19c3.8 0 6.732.995 8.8 2.984 2.065 1.99 3.099 4.862 3.099 8.62m-6.637.232c0-2.22-.429-3.867-1.287-4.94-.859-1.072-2.16-1.608-3.91-1.608h-1.86v13.576h1.423c1.944 0 3.367-.576 4.274-1.732.906-1.154 1.36-2.92 1.36-5.296" mask="url(#prefix__b)"/>
        </g>
        <mask id="prefix__d" fill="#fff">
            <use xlink:href="#prefix__c"/>
        </mask>
        <path fill="#7B7B7B" d="M41.296 24.728L47.388 24.728 47.388.391 41.296.391zM67.381 15.65c0 2.957-.775 5.263-2.329 6.916-1.552 1.654-3.726 2.482-6.52 2.482-2.679 0-4.812-.846-6.395-2.538-1.585-1.692-2.377-3.977-2.377-6.86 0-2.947.776-5.237 2.33-6.87 1.553-1.633 3.731-2.449 6.537-2.449 1.733 0 3.266.378 4.595 1.134 1.33.755 2.356 1.838 3.077 3.247.722 1.408 1.082 3.055 1.082 4.938m-11.434 0c0 1.552.202 2.736.607 3.55.405.813 1.085 1.22 2.04 1.22.946 0 1.614-.407 2.003-1.22.39-.814.583-1.998.583-3.55 0-1.543-.196-2.707-.59-3.494-.396-.787-1.07-1.182-2.027-1.182-.935 0-1.604.393-2.01 1.173-.404.782-.607 1.95-.607 3.503M69.801 24.728L75.894 24.728 75.894 15.414 75.894 6.651 69.801 6.651zM69.801 4.464L75.894 4.464 75.894.39 69.801.39zM88.238 20.117c.823 0 1.802-.208 2.945-.623v4.548c-.821.361-1.602.62-2.344.773-.743.155-1.614.233-2.61.233-2.046 0-3.52-.515-4.427-1.541-.901-1.026-1.354-2.602-1.354-4.73v-7.452h-2.133V6.652h2.133V2.036l6.14-1.068v5.684h3.887v4.673h-3.887v7.037c0 1.17.55 1.756 1.65 1.756M102.34 20.117c.822 0 1.802-.208 2.945-.623v4.548c-.82.361-1.602.62-2.344.773-.744.155-1.612.233-2.611.233-2.046 0-3.52-.515-4.424-1.541-.903-1.026-1.356-2.602-1.356-4.73v-7.452h-2.135V6.652h2.135V1.966l6.14-.998v5.684h3.888v4.673h-3.889v7.037c0 1.17.55 1.756 1.651 1.756M121.565 8.462c-1.448-1.42-3.502-2.13-6.16-2.13-2.795 0-4.945.816-6.452 2.449-1.506 1.633-2.26 3.975-2.26 7.028 0 2.956.815 5.236 2.44 6.837 1.625 1.6 3.908 2.4 6.848 2.4 1.412 0 2.627-.095 3.645-.287 1.012-.19 1.992-.532 2.942-1.027l-.936-4.074c-.69.282-1.348.499-1.968.642-.897.208-1.88.312-2.952.312-1.174 0-2.101-.287-2.78-.861-.68-.575-1.042-1.368-1.084-2.378h10.89v-2.776c0-2.67-.724-4.716-2.173-6.135zm-8.592 4.986c.083-.99.366-1.715.85-2.179.484-.462 1.082-.693 1.798-.693.781 0 1.402.26 1.862.783.464.52.705 1.217.724 2.089h-5.234zM36.768 8.462c-1.45-1.42-3.503-2.13-6.162-2.13-2.795 0-4.945.816-6.45 2.449-1.507 1.633-2.261 3.975-2.261 7.028 0 2.956.813 5.236 2.44 6.837 1.625 1.6 3.908 2.4 6.848 2.4 1.411 0 2.627-.095 3.645-.287 1.012-.19 1.992-.532 2.943-1.027l-.937-4.074c-.691.282-1.349.499-1.968.642-.898.208-1.881.312-2.952.312-1.174 0-2.101-.287-2.781-.861-.68-.575-1.042-1.368-1.083-2.378h10.89v-2.776c0-2.67-.724-4.716-2.172-6.135zm-8.593 4.986c.083-.99.366-1.715.849-2.179.483-.462 1.083-.693 1.8-.693.779 0 1.4.26 1.86.783.464.52.704 1.217.726 2.089h-5.235z" mask="url(#prefix__d)"/>
    </g>
</svg>
