<svg xmlns="http://www.w3.org/2000/svg" xmlns:xlink="http://www.w3.org/1999/xlink" width="181" height="28" viewBox="0 0 181 28">
    <defs>
        <path id="prefix__a" d="M0.074 0.171L23.441 0.171 23.441 22.418 0.074 22.418z"/>
    </defs>
    <g fill="none" fill-rule="evenodd">
        <path fill="#5C5C5C" d="M17.408 0v17.083l16.126 7.765L17.41 0h-.001zm0 27.81h17.408l-17.408-7.35v7.35z"/>
        <path fill="#7B7B7B" d="M17.408 0L1.282 24.848 17.408 17.083 17.408 0zM0 27.81L17.408 27.81 17.408 20.46z"/>
        <g>
            <path fill="#7B7B7B" d="M5.302 4.108h2.871c5.219 0 7.838 2.581 7.838 7.223 0 4.641-2.62 7.223-7.838 7.223H5.302V4.108zM.354 22.418h7.82c8.053 0 12.839-4.171 12.839-11.087 0-6.917-4.786-11.07-12.84-11.07H.353V22.42zM37.843 12.812L47.251 12.812 47.251 8.965 37.843 8.965 37.843 4.108 48.479 4.108 48.479.261 32.877.261 32.877 22.419 48.822 22.419 48.822 18.572 37.843 18.572zM77.029 18.572L67.476 18.572 67.476.261 62.51.261 62.51 22.419 77.029 22.419zM103.755.261L83.873.261 83.873 4.108 91.313 4.108 91.313 22.419 96.297 22.419 96.297 4.108 103.755 4.108z" transform="translate(48.06 2.43)"/>
            <g transform="translate(48.06 2.43) translate(109.08)">
                <mask id="prefix__b" fill="#fff">
                    <use xlink:href="#prefix__a"/>
                </mask>
                <path fill="#7B7B7B" d="M14.683 13.155L11.596 5.28 8.49 13.155h6.193zm8.759 9.263h-5.183l-2.167-5.543H7.08l-2.167 5.543H.074L9.338.171h5.003l9.1 22.247z" mask="url(#prefix__b)"/>
            </g>
        </g>
    </g>
</svg>
