<svg xmlns="http://www.w3.org/2000/svg" xmlns:xlink="http://www.w3.org/1999/xlink" width="126" height="45" viewBox="0 0 126 45">
    <defs>
        <path id="prefix__a" d="M0.314 0.174L24.439 0.174 24.439 22.896 0.314 22.896z"/>
        <path id="prefix__c" d="M0 0.862L23.978 0.862 23.978 17.1 0 17.1z"/>
        <path id="prefix__e" d="M0.451 0.862L17.92 0.862 17.92 17.1 0.451 17.1z"/>
        <path id="prefix__g" d="M0.441 0.862L18.993 0.862 18.993 17.1 0.441 17.1z"/>
        <path id="prefix__i" d="M0.52 0.862L8.991 0.862 8.991 17.1 0.52 17.1z"/>
        <path id="prefix__k" d="M0.41 0.862L20.047 0.862 20.047 17.1 0.41 17.1z"/>
    </defs>
    <g fill="none" fill-rule="evenodd">
        <path fill="#fff" d="M16.95 4.99l-2.03 6.647h6.333c1.04 0 1.975-.271 2.804-.814.829-.542 1.417-1.383 1.766-2.524.344-1.122.27-1.954-.216-2.496-.488-.541-1.262-.813-2.323-.813H16.95zm-3.186 10.424L11.35 23.31H6.579l6.754-22.097h13.265c2.044 0 3.48.6 4.305 1.803.826 1.203.882 2.968.17 5.297-.706 2.31-1.841 4.071-3.404 5.283-1.564 1.212-3.368 1.818-5.413 1.818h-8.492zM81.732 1.213L80.577 4.99H68.364c-.776 0-1.546.229-2.31.685-.677.476-1.142 1.133-1.399 1.97-.28.916-.195 1.6.252 2.057.39.4 1.03.6 1.92.6H73.7c1.533 0 2.781.436 3.746 1.306 1.2 1.155 1.447 2.888.741 5.197-.672 2.197-1.976 3.92-3.91 5.17-1.484.89-3.002 1.335-4.555 1.335H55.095l1.155-3.778h12.497c.72 0 1.46-.256 2.223-.766.762-.512 1.264-1.165 1.507-1.96.249-.814.147-1.468-.31-1.96-.41-.512-1.024-.768-1.838-.768H63.4c-1.534 0-2.767-.425-3.699-1.278-1.2-1.154-1.453-2.868-.757-5.14.694-2.272 1.995-3.986 3.9-5.14 1.422-.871 2.918-1.307 4.49-1.307h14.4zM103.914 1.213l-1.155 3.777h-8.18c-1.818 0-3.366.608-4.646 1.822-1.281 1.213-2.29 3.026-3.026 5.435-.743 2.428-.873 4.25-.392 5.464.48 1.214 1.687 1.821 3.618 1.821h8.18l-1.155 3.778h-9.6c-2.991 0-4.997-.952-6.014-2.855-1.018-1.903-.983-4.634.105-8.194 1.1-3.597 2.733-6.338 4.898-8.222 2.168-1.884 4.756-2.826 7.767-2.826h9.6z"/>
        <g transform="translate(100.8 .726)">
            <mask id="prefix__b" fill="#fff">
                <use xlink:href="#prefix__a"/>
            </mask>
            <path fill="#fff" d="M14.755 3.81c-1.932 0-3.56.464-4.886 1.39-1.54 1.137-2.782 3.249-3.726 6.335-.74 2.424-.953 4.203-.638 5.34.422 1.59 1.932 2.385 4.525 2.385 2.48 0 4.476-.795 5.984-2.385 1.03-1.137 1.914-2.916 2.655-5.34.752-2.462.964-4.24.639-5.34-.48-1.591-1.997-2.386-4.553-2.386M1.174 11.535c.561-1.837 1.222-3.394 1.981-4.672.76-1.278 1.686-2.4 2.777-3.366C8.408 1.28 11.719.173 15.866.173c4.032 0 6.669 1.1 7.911 3.296.2.397.365.908.496 1.534.014.075.043.293.085.652.04.36.068.767.08 1.221-.013 1.345-.29 2.898-.827 4.659-1.065 3.484-2.642 6.163-4.73 8.038-2.533 2.216-5.854 3.323-9.962 3.323-4.146 0-6.784-1.098-7.911-3.295-.977-1.818-.923-4.506.166-8.066" mask="url(#prefix__b)"/>
        </g>
        <g transform="translate(0 27.726)">
            <mask id="prefix__d" fill="#fff">
                <use xlink:href="#prefix__c"/>
            </mask>
            <path fill="#fff" d="M3.506 17.1L-0.001 17.1 4.965 0.862 10.182 0.862 10.605 13.406 18.739 0.862 23.978 0.862 19.013 17.1 15.507 17.1 19.214 4.973 19.131 4.973 11.208 17.1 7.805 17.1 7.297 4.973 7.213 4.973z" mask="url(#prefix__d)"/>
        </g>
        <g transform="translate(21.6 27.726)">
            <mask id="prefix__f" fill="#fff">
                <use xlink:href="#prefix__e"/>
            </mask>
            <path fill="#fff" d="M12.949 4.828l-4.146 5.78h4.736l-.59-5.78zM.45 17.1L12.367.862h3.568L17.92 17.1h-3.715l-.4-3.944H7.02L4.188 17.1H.451z" mask="url(#prefix__f)"/>
        </g>
        <path fill="#fff" d="M59.499 28.588l-.849 2.777h-6.011c-1.336 0-2.474.445-3.415 1.337-.94.893-1.682 2.224-2.223 3.995-.546 1.785-.642 3.122-.289 4.015.354.892 1.24 1.338 2.66 1.338h6.011l-.849 2.776H47.48c-2.198 0-3.672-.698-4.419-2.097-.749-1.399-.723-3.406.077-6.022.808-2.643 2.009-4.657 3.6-6.042 1.593-1.384 3.494-2.077 5.707-2.077h7.055z"/>
        <g transform="translate(56.7 27.726)">
            <mask id="prefix__h" fill="#fff">
                <use xlink:href="#prefix__g"/>
            </mask>
            <path fill="#fff" d="M0.441 17.1L5.405 0.862 8.912 0.862 6.837 7.646 13.454 7.646 15.528 0.862 18.993 0.862 14.028 17.1 10.563 17.1 12.638 10.317 6.021 10.317 3.947 17.1z" mask="url(#prefix__h)"/>
        </g>
        <g transform="translate(73.8 27.726)">
            <mask id="prefix__j" fill="#fff">
                <use xlink:href="#prefix__i"/>
            </mask>
            <path fill="#fff" d="M4.026 17.1L0.52 17.1 5.485 0.862 8.991 0.862z" mask="url(#prefix__j)"/>
        </g>
        <g transform="translate(81 27.726)">
            <mask id="prefix__l" fill="#fff">
                <use xlink:href="#prefix__k"/>
            </mask>
            <path fill="#fff" d="M3.916 17.1L0.41 17.1 5.375 0.862 9.8 0.862 12.821 12.758 12.904 12.758 16.541 0.862 20.047 0.862 15.083 17.1 10.658 17.1 7.631 5.225 7.547 5.225z" mask="url(#prefix__l)"/>
        </g>
        <path fill="#fff" d="M114.885 38.043h-9.539l-.032.104-.139 1.274c.006.668.177 1.266.516 1.795.086.083.17.153.25.208.147.112.356.243.63.396l.617.168.878.063h5.594l-.85 2.775h-6.574c-2.198 0-3.672-.699-4.42-2.097-.748-1.4-.722-3.405.077-6.022.809-2.643 2.009-4.657 3.6-6.042 1.594-1.384 3.495-2.076 5.708-2.076h6.574l-.848 2.776H110.54c-.279 0-.589.07-.931.212-.342.14-.727.339-1.152.594-.438.339-.865.783-1.285 1.335-.266.367-.592.954-.976 1.76l-.033.106h9.539l-.817 2.671zM38.605 19.547c-.89 0-1.53-.201-1.92-.6-.447-.457-.53-1.142-.251-2.056.256-.837.722-1.494 1.398-1.97.764-.458 1.535-.686 2.312-.686h8.211l-1.623 5.312h-8.127zm16.156-16.53c-.825-1.203-2.26-1.804-4.305-1.804H37.103L35.95 4.99h11.685c1.06 0 1.835.272 2.322.813.482.536.556 1.357.225 2.46l-.67 2.194h-10.4c-1.572 0-3.068.436-4.489 1.307-1.906 1.155-3.206 2.869-3.9 5.14-.695 2.273-.443 3.987.756 5.142.933.851 2.166 1.278 3.7 1.278h6.93l4.605-.01 3.61.01 4.611-15.01c.713-2.33.654-4.095-.173-5.298z"/>
    </g>
</svg>
