<svg xmlns="http://www.w3.org/2000/svg" xmlns:xlink="http://www.w3.org/1999/xlink" width="188" height="44" viewBox="0 0 188 44">
    <defs>
        <path id="prefix__a" d="M0 43.171L187.05 43.171 187.05 0 0 0z"/>
    </defs>
    <g fill="none" fill-rule="evenodd">
        <path fill="#7B7B7B" d="M41.303 42.511h6.707v-5.867h7.183c4.757 0 6.47-2.801 6.47-6.422 0-4.202-1.76-6.58-6.518-6.58H41.303V42.51zm6.707-14.43h4.33c1.688 0 2.33.582 2.33 2.009 0 1.374-.642 1.956-2.33 1.956h-4.33V28.08zM63.874 23.641L81.926 23.641 81.926 28.24 70.581 28.24 70.581 30.777 81.117 30.777 81.117 35.376 70.581 35.376 70.581 37.912 81.926 37.912 81.926 42.511 63.874 42.511zM84.733 42.511h6.707v-5.867h7.181c4.758 0 6.47-2.801 6.47-6.422 0-4.202-1.76-6.58-6.517-6.58H84.733V42.51zm6.707-14.43h4.328c1.689 0 2.33.582 2.33 2.009 0 1.374-.641 1.956-2.33 1.956H91.44V28.08zM111.584 34.503c-3.282-.554-4.638-2.67-4.638-5.312 0-4.89 4.305-6.21 9.823-6.21 7.563 0 10.679 2.193 10.917 6.184h-7.8c0-.766-.406-1.243-1.024-1.507-.594-.29-1.356-.396-2.093-.396-1.998 0-2.688.555-2.688 1.348 0 .529.215.872.88.978l8.015 1.321c3.378.556 5.47 2.3 5.47 5.497 0 4.597-3.377 6.765-10.916 6.765-5.16 0-10.798-.794-10.821-6.342h8.086c.024.633.237 1.056.713 1.347.5.264 1.237.397 2.283.397 2.094 0 2.665-.634 2.665-1.533 0-.555-.31-1.11-1.213-1.269l-7.659-1.268z"/>
        <mask id="prefix__b" fill="#fff">
            <use xlink:href="#prefix__a"/>
        </mask>
        <path fill="#7B7B7B" d="M130.635 42.511L137.342 42.511 137.342 23.642 130.635 23.642zM162.196 35.163c-.429 2.485-1.189 4.493-2.854 5.867-1.641 1.374-4.21 2.14-8.3 2.14-4.067 0-11.608-.317-11.608-10.094 0-9.778 7.541-10.095 11.607-10.095 4.043 0 10.275.581 11.155 8.06h-7.564c-.19-1.347-.998-3.303-3.59-3.303-2.736 0-4.472 1.506-4.472 5.338 0 3.831 1.688 5.338 4.139 5.338 2.116 0 3.376-.978 3.923-3.25h7.564zM163.837 33.076c0 9.778 7.54 10.095 11.607 10.095 4.067 0 11.606-.317 11.606-10.095s-7.54-10.095-11.606-10.095c-4.067 0-11.607.317-11.607 10.095m7.135 0c0-3.832 1.737-5.338 4.472-5.338 2.734 0 4.47 1.506 4.47 5.338s-1.736 5.338-4.47 5.338c-2.735 0-4.472-1.506-4.472-5.338M30.532 24.98c-.698.852-1.576 1.712-2.606 2.528C26.033 16.624 18.03 7.107 12.374 4.33l-.121.085c5.688 4.667 12.475 13.729 15.114 23.52-1.262.93-2.722 1.783-4.334 2.48-5.37-6.12-10.375-17.921-11.988-25.409l-.165.049c.038 7.269 5.2 19.61 11.499 25.63-1.398.552-2.9.982-4.48 1.237-6.036-2.39-10.332-10.045-10.332-17.884 0-5.12 1.561-8.286 1.863-8.936l-.13-.05c-.364.552-2.653 3.717-2.653 9.243 0 8.865 4.374 15.638 10.183 17.773-1.987.216-4.079.15-6.223-.293l-.042.135c.62.229 2.728 1.113 5.942 1.113 7.273 0 12.188-4.516 14.167-7.947l-.142-.096zm.636-1.151c.434-9.053-7.377-19.246-18.027-20.507l.017-.123c10.5 0 18.548 9.713 18.548 17.376-.011 1.594-.137 2.583-.362 3.3l-.176-.046z" mask="url(#prefix__b)"/>
        <path fill="#7B7B7B" d="M17.981 2.556c0 2.782-5.347 6.184-9.816 6.184-1.974 0-3.042-.777-3.042-2.06 0-2.822 5.407-6.165 9.6-6.165 2.733 0 3.258 1.389 3.258 2.04M15.781 0C10.267 0 3.804 3.976 3.804 7.61c0 1.406 1.287 2.596 3.95 2.596 6.183 0 11.927-4.248 11.927-7.548 0-1.737-1.67-2.658-3.9-2.658" mask="url(#prefix__b)"/>
        <path fill="#7B7B7B" d="M1.608 9.293c-.155.268-.775 1.482-.775 2.726 0 2.308 2.333 4.45 6.623 4.45 8.256 0 17.793-6.072 17.793-11.709 0-2.53-2.397-3.906-4.062-4.19l-.03.098c.517.164 2.413 1.044 2.413 3.3 0 4.49-8.42 10.61-16.81 10.61-3.21 0-5.234-1.585-5.234-3.893 0-.729.153-1.21.194-1.348l-.112-.044z" mask="url(#prefix__b)"/>
        <path fill="#7B7B7B" d="M28.652 5.182c.226.172 1.586 1.304 1.586 3.446 0 7.302-11.448 14.483-21.569 14.483-6.036 0-8.788-2.979-8.665-5.623h.108c.236 1.372 2.196 3.829 7.477 3.829 10.135 0 21.45-7.429 21.45-13.938 0-1.117-.303-1.813-.475-2.121l.088-.076z" mask="url(#prefix__b)"/>
        <path fill="#7B7B7B" d="M32.479 11.999c.047.155.294.854.294 1.95 0 8.122-11.587 15.075-21.662 15.075-5.186 0-7.895-2.517-8.466-3.538l.092-.07c1.435 1.256 4.26 2.206 7.56 2.206 8.9 0 22.178-6.765 22.059-15.595l.123-.028z" mask="url(#prefix__b)"/>
    </g>
</svg>
