<?xml version="1.0" encoding="UTF-8"?>
<svg width="251px" height="29px" viewBox="0 0 251 29" version="1.1" xmlns="http://www.w3.org/2000/svg" xmlns:xlink="http://www.w3.org/1999/xlink">
    <!-- Generator: sketchtool 63.1 (101010) - https://sketch.com -->
    <title>EB2B9457-7487-4843-A3E6-06BC4ED03BAB</title>
    <desc>Created with sketchtool.</desc>
    <defs>
        <path d="M53.934,0.979 C53.558,1.355 53.371,1.812 53.371,2.363 L53.371,2.363 C53.371,2.89 53.558,3.347 53.934,3.722 L53.934,3.722 C54.297,4.097 54.765,4.284 55.34,4.284 L55.34,4.284 C55.915,4.284 56.383,4.097 56.746,3.722 L56.746,3.722 C57.11,3.347 57.285,2.89 57.285,2.363 L57.285,2.363 C57.285,1.812 57.11,1.355 56.746,0.979 L56.746,0.979 C56.383,0.605 55.915,0.417 55.34,0.417 L55.34,0.417 C54.765,0.417 54.297,0.605 53.934,0.979 L53.934,0.979 Z M61.445,1.683 C60.613,2.515 60.203,3.698 60.203,5.222 L60.203,5.222 L60.203,6.511 L57.496,6.511 L57.496,9.183 L60.203,9.183 L60.203,18.37 L63.32,18.37 L63.32,9.183 L66.859,9.183 L66.859,6.511 L63.32,6.511 L63.32,5.551 C63.32,4.741 63.484,4.144 63.8,3.757 L63.8,3.757 C64.117,3.371 64.703,3.183 65.558,3.183 L65.558,3.183 C65.898,3.183 66.332,3.206 66.859,3.253 L66.859,3.253 L66.859,0.734 C66.284,0.535 65.605,0.44 64.844,0.44 L64.844,0.44 C63.402,0.44 62.265,0.851 61.445,1.683 L61.445,1.683 Z M127.712,1.6 C126.435,2.363 125.439,3.441 124.724,4.823 L124.724,4.823 C124.009,6.207 123.658,7.801 123.658,9.605 L123.658,9.605 C123.658,11.398 124.009,12.992 124.712,14.374 L124.712,14.374 C125.415,15.757 126.4,16.824 127.677,17.585 L127.677,17.585 C128.954,18.347 130.408,18.734 132.06,18.734 L132.06,18.734 C133.314,18.734 134.486,18.511 135.552,18.042 L135.552,18.042 C136.618,17.585 137.509,16.941 138.236,16.108 L138.236,16.108 C138.962,15.277 139.454,14.327 139.712,13.237 L139.712,13.237 L136.548,12.077 C136.302,13.12 135.774,13.952 134.966,14.574 L134.966,14.574 C134.145,15.195 133.185,15.511 132.083,15.511 L132.083,15.511 C131.111,15.511 130.243,15.265 129.493,14.761 L129.493,14.761 C128.732,14.269 128.146,13.578 127.735,12.687 L127.735,12.687 C127.325,11.808 127.115,10.777 127.115,9.605 L127.115,9.605 C127.115,8.421 127.325,7.39 127.735,6.487 L127.735,6.487 C128.146,5.597 128.732,4.905 129.493,4.413 L129.493,4.413 C130.243,3.933 131.111,3.687 132.083,3.687 L132.083,3.687 C133.185,3.687 134.145,3.992 134.966,4.613 L134.966,4.613 C135.774,5.234 136.302,6.065 136.548,7.108 L136.548,7.108 L139.712,5.937 C139.443,4.847 138.939,3.886 138.212,3.054 L138.212,3.054 C137.485,2.222 136.595,1.589 135.529,1.132 L135.529,1.132 C134.462,0.687 133.314,0.464 132.083,0.464 L132.083,0.464 C130.454,0.464 128.989,0.839 127.712,1.6 L127.712,1.6 Z M170.461,1.132 C169.559,1.565 168.844,2.187 168.34,2.984 L168.34,2.984 C167.824,3.792 167.567,4.73 167.567,5.796 L167.567,5.796 C167.567,7.062 167.953,8.105 168.715,8.937 L168.715,8.937 C169.477,9.769 170.684,10.402 172.348,10.812 L172.348,10.812 L174.668,11.386 C175.969,11.725 176.614,12.406 176.614,13.426 L176.614,13.426 C176.614,14.128 176.355,14.667 175.84,15.054 L175.84,15.054 C175.324,15.441 174.621,15.639 173.743,15.639 L173.743,15.639 C172.746,15.639 171.949,15.382 171.34,14.878 L171.34,14.878 C170.73,14.374 170.414,13.706 170.379,12.898 L170.379,12.898 L167.238,13.378 C167.332,14.421 167.66,15.335 168.223,16.132 L168.223,16.132 C168.774,16.941 169.523,17.562 170.473,17.996 L170.473,17.996 C171.422,18.44 172.511,18.663 173.766,18.663 L173.766,18.663 C175.008,18.663 176.098,18.44 177.047,17.984 L177.047,17.984 C177.996,17.538 178.723,16.906 179.25,16.085 L179.25,16.085 C179.765,15.277 180.024,14.327 180.024,13.261 L180.024,13.261 C180.024,12.042 179.672,10.999 178.969,10.132 L178.969,10.132 C178.266,9.277 177.188,8.667 175.734,8.315 L175.734,8.315 L173.356,7.718 C172.571,7.507 171.973,7.25 171.563,6.933 L171.563,6.933 C171.152,6.616 170.953,6.171 170.953,5.597 L170.953,5.597 C170.953,4.964 171.187,4.449 171.668,4.05 L171.668,4.05 C172.137,3.663 172.758,3.464 173.519,3.464 L173.519,3.464 C174.352,3.464 175.043,3.675 175.57,4.109 L175.57,4.109 C176.098,4.542 176.39,5.128 176.473,5.866 L176.473,5.866 L179.566,5.07 C179.368,3.663 178.712,2.55 177.622,1.718 L177.622,1.718 C176.52,0.898 175.16,0.488 173.543,0.488 L173.543,0.488 C172.394,0.488 171.363,0.699 170.461,1.132 L170.461,1.132 Z M13.975,0.663 L13.975,18.37 L17.044,18.37 L17.044,11.573 C17.044,10.777 17.243,10.132 17.63,9.652 L17.63,9.652 C18.017,9.171 18.58,8.937 19.318,8.937 L19.318,8.937 C19.927,8.937 20.408,9.148 20.771,9.558 L20.771,9.558 C21.134,9.968 21.311,10.6 21.311,11.456 L21.311,11.456 L21.311,18.37 L24.392,18.37 L24.392,10.788 C24.392,9.37 24.029,8.233 23.29,7.378 L23.29,7.378 C22.553,6.523 21.521,6.1 20.209,6.1 L20.209,6.1 C19.564,6.1 18.966,6.218 18.415,6.464 L18.415,6.464 C17.853,6.711 17.396,7.062 17.044,7.519 L17.044,7.519 L17.044,0.663 L13.975,0.663 Z M94.455,0.827 L90.307,8.046 L86.206,0.827 L82.526,0.827 L88.748,11.41 L88.748,18.37 L91.843,18.37 L91.843,11.41 L98.112,0.827 L94.455,0.827 Z M42.368,0.827 L42.368,18.37 L52.81,18.37 L52.81,15.324 L45.544,15.324 L45.544,0.827 L42.368,0.827 Z M0.779,0.827 L0.779,3.85 L5.514,3.85 L5.514,18.37 L8.677,18.37 L8.677,3.85 L13.4,3.85 L13.4,0.827 L0.779,0.827 Z M204.995,6.898 C204.105,7.425 203.413,8.175 202.932,9.124 L202.932,9.124 C202.441,10.086 202.194,11.199 202.194,12.464 L202.194,12.464 C202.194,13.73 202.441,14.843 202.945,15.792 L202.945,15.792 C203.436,16.741 204.128,17.48 205.03,17.996 L205.03,17.996 C205.921,18.523 206.953,18.781 208.124,18.781 L208.124,18.781 C209.448,18.781 210.632,18.464 211.652,17.819 L211.652,17.819 C212.671,17.175 213.351,16.343 213.667,15.3 L213.667,15.3 L211.218,14.339 C210.995,14.89 210.597,15.324 210.046,15.663 L210.046,15.663 C209.483,16.003 208.851,16.167 208.148,16.167 L208.148,16.167 C207.268,16.167 206.554,15.921 206.027,15.417 L206.027,15.417 C205.487,14.925 205.207,14.257 205.195,13.401 L205.195,13.401 L213.55,13.401 C213.656,12.898 213.714,12.371 213.714,11.843 L213.714,11.843 C213.714,10.707 213.479,9.71 213.01,8.843 L213.01,8.843 C212.531,7.976 211.874,7.296 211.019,6.816 L211.019,6.816 C210.163,6.335 209.179,6.1 208.078,6.1 L208.078,6.1 C206.906,6.1 205.874,6.37 204.995,6.898 L204.995,6.898 Z M206.097,9.358 C206.612,8.926 207.257,8.702 208.031,8.702 L208.031,8.702 C208.781,8.702 209.39,8.913 209.859,9.347 L209.859,9.347 C210.316,9.781 210.562,10.355 210.597,11.093 L210.597,11.093 L205.218,11.093 C205.277,10.378 205.569,9.792 206.097,9.358 L206.097,9.358 Z M182.496,7.062 C181.546,7.706 180.984,8.62 180.785,9.804 L180.785,9.804 L183.398,10.472 C183.48,9.921 183.738,9.475 184.195,9.136 L184.195,9.136 C184.641,8.796 185.203,8.632 185.894,8.632 L185.894,8.632 C186.504,8.632 186.984,8.773 187.324,9.042 L187.324,9.042 C187.664,9.312 187.839,9.687 187.839,10.167 L187.839,10.167 C187.839,10.917 187.394,11.292 186.492,11.292 L186.492,11.292 L184.664,11.292 C183.363,11.292 182.331,11.632 181.546,12.324 L181.546,12.324 C180.762,13.015 180.375,13.929 180.375,15.077 L180.375,15.077 C180.375,16.202 180.738,17.105 181.476,17.773 L181.476,17.773 C182.214,18.44 183.175,18.781 184.359,18.781 L184.359,18.781 C185.167,18.781 185.894,18.617 186.539,18.3 L186.539,18.3 C187.183,17.984 187.664,17.538 187.98,16.976 L187.98,16.976 L188.144,18.37 L190.863,18.37 L190.863,10.718 C190.863,9.23 190.441,8.081 189.597,7.285 L189.597,7.285 C188.742,6.499 187.547,6.1 186.011,6.1 L186.011,6.1 C184.605,6.1 183.433,6.417 182.496,7.062 L182.496,7.062 Z M183.96,15.898 C183.621,15.639 183.445,15.277 183.445,14.82 L183.445,14.82 C183.445,14.374 183.598,14.023 183.913,13.777 L183.913,13.777 C184.23,13.531 184.699,13.401 185.32,13.401 L185.32,13.401 L187.816,13.401 L187.816,13.882 C187.816,14.597 187.605,15.183 187.171,15.616 L187.171,15.616 C186.738,16.062 186.128,16.285 185.367,16.285 L185.367,16.285 C184.769,16.285 184.3,16.155 183.96,15.898 L183.96,15.898 Z M156.094,6.534 C155.497,6.828 155.04,7.25 154.699,7.812 L154.699,7.812 L154.571,6.511 L151.817,6.511 L151.817,18.37 L154.888,18.37 L154.888,11.503 C154.888,10.718 155.087,10.097 155.473,9.628 L155.473,9.628 C155.86,9.171 156.422,8.937 157.161,8.937 L157.161,8.937 C157.77,8.937 158.251,9.136 158.614,9.546 L158.614,9.546 C158.977,9.956 159.153,10.577 159.153,11.386 L159.153,11.386 L159.153,18.37 L162.235,18.37 L162.235,10.788 C162.235,9.37 161.872,8.233 161.134,7.378 L161.134,7.378 C160.395,6.523 159.364,6.1 158.051,6.1 L158.051,6.1 C157.337,6.1 156.68,6.242 156.094,6.534 L156.094,6.534 Z M142.208,7.062 C141.259,7.706 140.696,8.62 140.497,9.804 L140.497,9.804 L143.11,10.472 C143.192,9.921 143.45,9.475 143.908,9.136 L143.908,9.136 C144.353,8.796 144.916,8.632 145.607,8.632 L145.607,8.632 C146.216,8.632 146.697,8.773 147.036,9.042 L147.036,9.042 C147.376,9.312 147.552,9.687 147.552,10.167 L147.552,10.167 C147.552,10.917 147.106,11.292 146.204,11.292 L146.204,11.292 L144.376,11.292 C143.075,11.292 142.044,11.632 141.259,12.324 L141.259,12.324 C140.474,13.015 140.087,13.929 140.087,15.077 L140.087,15.077 C140.087,16.202 140.451,17.105 141.189,17.773 L141.189,17.773 C141.927,18.44 142.888,18.781 144.071,18.781 L144.071,18.781 C144.88,18.781 145.607,18.617 146.251,18.3 L146.251,18.3 C146.896,17.984 147.376,17.538 147.692,16.976 L147.692,16.976 L147.857,18.37 L150.576,18.37 L150.576,10.718 C150.576,9.23 150.154,8.081 149.309,7.285 L149.309,7.285 C148.454,6.499 147.259,6.1 145.724,6.1 L145.724,6.1 C144.317,6.1 143.145,6.417 142.208,7.062 L142.208,7.062 Z M143.673,15.898 C143.333,15.639 143.157,15.277 143.157,14.82 L143.157,14.82 C143.157,14.374 143.31,14.023 143.626,13.777 L143.626,13.777 C143.943,13.531 144.412,13.401 145.033,13.401 L145.033,13.401 L147.528,13.401 L147.528,13.882 C147.528,14.597 147.318,15.183 146.884,15.616 L146.884,15.616 C146.45,16.062 145.841,16.285 145.079,16.285 L145.079,16.285 C144.482,16.285 144.013,16.155 143.673,15.898 L143.673,15.898 Z M97.983,6.91 C97.034,7.449 96.296,8.198 95.756,9.148 L95.756,9.148 C95.205,10.109 94.936,11.211 94.936,12.441 L94.936,12.441 C94.936,13.671 95.205,14.773 95.756,15.734 L95.756,15.734 C96.296,16.694 97.034,17.445 97.983,17.972 L97.983,17.972 C98.92,18.511 99.975,18.781 101.147,18.781 L101.147,18.781 C102.33,18.781 103.397,18.511 104.334,17.972 L104.334,17.972 C105.26,17.445 105.998,16.694 106.538,15.734 L106.538,15.734 C107.076,14.773 107.346,13.671 107.346,12.441 L107.346,12.441 C107.346,11.211 107.076,10.109 106.549,9.148 L106.549,9.148 C106.021,8.198 105.284,7.449 104.358,6.91 L104.358,6.91 C103.42,6.37 102.354,6.1 101.17,6.1 L101.17,6.1 C99.987,6.1 98.932,6.37 97.983,6.91 L97.983,6.91 Z M98.967,14.983 C98.416,14.339 98.146,13.507 98.146,12.464 L98.146,12.464 C98.146,11.398 98.416,10.53 98.967,9.886 L98.967,9.886 C99.506,9.241 100.222,8.913 101.123,8.913 L101.123,8.913 C102.025,8.913 102.752,9.241 103.303,9.886 L103.303,9.886 C103.854,10.53 104.123,11.386 104.123,12.441 L104.123,12.441 C104.123,13.496 103.854,14.339 103.303,14.983 L103.303,14.983 C102.752,15.628 102.025,15.945 101.123,15.945 L101.123,15.945 C100.233,15.945 99.518,15.628 98.967,14.983 L98.967,14.983 Z M69.648,6.898 C68.758,7.425 68.066,8.175 67.585,9.124 L67.585,9.124 C67.094,10.086 66.847,11.199 66.847,12.464 L66.847,12.464 C66.847,13.73 67.094,14.843 67.598,15.792 L67.598,15.792 C68.089,16.741 68.781,17.48 69.683,17.996 L69.683,17.996 C70.574,18.523 71.605,18.781 72.776,18.781 L72.776,18.781 C74.101,18.781 75.284,18.464 76.304,17.819 L76.304,17.819 C77.324,17.175 78.003,16.343 78.32,15.3 L78.32,15.3 L75.87,14.339 C75.648,14.89 75.249,15.324 74.699,15.663 L74.699,15.663 C74.136,16.003 73.503,16.167 72.8,16.167 L72.8,16.167 C71.921,16.167 71.206,15.921 70.679,15.417 L70.679,15.417 C70.14,14.925 69.859,14.257 69.848,13.401 L69.848,13.401 L78.202,13.401 C78.308,12.898 78.367,12.371 78.367,11.843 L78.367,11.843 C78.367,10.707 78.132,9.71 77.664,8.843 L77.664,8.843 C77.183,7.976 76.526,7.296 75.671,6.816 L75.671,6.816 C74.816,6.335 73.831,6.1 72.73,6.1 L72.73,6.1 C71.558,6.1 70.526,6.37 69.648,6.898 L69.648,6.898 Z M70.749,9.358 C71.265,8.926 71.909,8.702 72.683,8.702 L72.683,8.702 C73.433,8.702 74.042,8.913 74.511,9.347 L74.511,9.347 C74.969,9.781 75.214,10.355 75.249,11.093 L75.249,11.093 L69.871,11.093 C69.929,10.378 70.222,9.792 70.749,9.358 L70.749,9.358 Z M28.071,6.898 C27.181,7.425 26.489,8.175 26.008,9.124 L26.008,9.124 C25.517,10.086 25.271,11.199 25.271,12.464 L25.271,12.464 C25.271,13.73 25.517,14.843 26.02,15.792 L26.02,15.792 C26.512,16.741 27.205,17.48 28.106,17.996 L28.106,17.996 C28.997,18.523 30.029,18.781 31.201,18.781 L31.201,18.781 C32.525,18.781 33.708,18.464 34.728,17.819 L34.728,17.819 C35.747,17.175 36.427,16.343 36.744,15.3 L36.744,15.3 L34.294,14.339 C34.072,14.89 33.673,15.324 33.122,15.663 L33.122,15.663 C32.56,16.003 31.927,16.167 31.224,16.167 L31.224,16.167 C30.345,16.167 29.63,15.921 29.103,15.417 L29.103,15.417 C28.564,14.925 28.282,14.257 28.27,13.401 L28.27,13.401 L36.626,13.401 C36.732,12.898 36.79,12.371 36.79,11.843 L36.79,11.843 C36.79,10.707 36.556,9.71 36.087,8.843 L36.087,8.843 C35.607,7.976 34.95,7.296 34.095,6.816 L34.095,6.816 C33.239,6.335 32.255,6.1 31.154,6.1 L31.154,6.1 C29.982,6.1 28.951,6.37 28.071,6.898 L28.071,6.898 Z M29.173,9.358 C29.689,8.926 30.333,8.702 31.107,8.702 L31.107,8.702 C31.857,8.702 32.466,8.913 32.935,9.347 L32.935,9.347 C33.392,9.781 33.638,10.355 33.673,11.093 L33.673,11.093 L28.294,11.093 C28.353,10.378 28.646,9.792 29.173,9.358 L29.173,9.358 Z M199.499,6.511 L197.284,12.605 L197.12,13.109 C196.91,13.636 196.745,14.199 196.616,14.773 L196.616,14.773 C196.558,14.456 196.464,14.117 196.347,13.765 L196.347,13.765 L196.211,13.388 C196.164,13.248 196.133,13.146 196.112,13.085 L196.112,13.085 L196.07,12.992 C196.036,12.907 195.992,12.777 195.937,12.605 L195.937,12.605 L193.827,6.511 L190.417,6.511 L195.105,18.37 L198.081,18.37 L202.827,6.511 L199.499,6.511 Z M115.35,6.511 L115.35,13.354 C115.35,14.14 115.162,14.749 114.787,15.183 L114.787,15.183 C114.412,15.628 113.873,15.851 113.17,15.851 L113.17,15.851 C112.572,15.851 112.103,15.663 111.752,15.277 L111.752,15.277 C111.4,14.902 111.225,14.327 111.225,13.542 L111.225,13.542 L111.225,6.511 L108.154,6.511 L108.154,14.386 C108.154,15.711 108.506,16.776 109.221,17.574 L109.221,17.574 C109.935,18.382 110.908,18.781 112.138,18.781 L112.138,18.781 C112.901,18.781 113.592,18.617 114.213,18.288 L114.213,18.288 C114.822,17.961 115.268,17.527 115.537,16.999 L115.537,16.999 L115.537,18.37 L118.42,18.37 L118.42,6.511 L115.35,6.511 Z M53.852,18.37 L56.852,18.37 L56.852,6.511 L53.852,6.511 L53.852,18.37 Z" id="path-1"></path>
        <path d="M20.186,0.727 C17.594,1.374 16.564,3.592 14.986,5.454 L14.986,5.454 C14.102,4.056 13.866,2.136 12.473,1.346 L12.473,1.346 C11.486,0.787 9.643,0.621 8.13,0.727 L8.13,0.727 C5.62,0.904 3.59,2.149 2.475,3.314 L2.475,3.314 C0.899,4.96 -0.316,7.525 0.074,10.856 L0.074,10.856 C0.573,15.113 3.294,17.802 5.903,20.759 L5.903,20.759 C7.192,22.221 8.213,23.782 9.443,25.092 L9.443,25.092 C10.647,26.368 11.74,27.617 12.909,28.785 L12.909,28.785 L12.931,28.804 C12.995,28.875 13.055,28.935 13.117,29 L13.117,29 C13.697,26.405 14.444,22.952 14.461,22.346 L14.461,22.346 C14.49,21.351 13.439,21.724 12.234,20.551 L12.234,20.551 C11.577,19.912 10.231,18.503 9.494,18.071 L9.494,18.071 C8.33,17.389 8.961,16.863 9.99,17.062 L9.99,17.062 C11.191,17.293 11.623,17.99 12.174,17.628 L12.174,17.628 C12.548,17.383 13.068,16.251 12.944,15.457 L12.944,15.457 C12.866,14.974 12.204,13.658 11.679,12.161 L11.679,12.161 C11.192,10.776 11.004,9.437 11.669,9.363 L11.669,9.363 C12.704,9.249 12.718,10.428 13.26,11.682 L13.26,11.682 C13.971,13.318 14.822,14.985 14.822,14.985 L14.822,14.985 C14.822,14.985 14.775,12.884 14.959,11.179 L14.959,11.179 C15.09,9.971 15.001,8.252 15.561,8.252 L15.561,8.252 C15.572,8.252 15.583,8.252 15.594,8.254 L15.594,8.254 C16.811,8.385 16.602,9.945 16.641,11.189 L16.641,11.189 C16.695,12.815 16.711,15.064 16.711,15.064 L16.711,15.064 C16.711,15.064 17.275,13.668 17.873,11.996 L17.873,11.996 C18.309,10.775 18.36,9.612 19.185,9.716 L19.185,9.716 C19.936,9.812 19.584,11.145 19.301,12.425 L19.301,12.425 C18.97,13.923 18.853,15.309 18.853,15.309 L18.853,15.309 C18.853,15.309 19.727,14.486 20.27,13.479 L20.27,13.479 C20.734,12.623 20.898,12.593 21.283,12.862 L21.283,12.862 C21.554,13.053 21.64,13.208 21.191,14.064 L21.191,14.064 C20.71,14.982 20.331,15.828 20.177,16.349 L20.177,16.349 C20.054,16.77 19.73,19.04 19.516,19.929 L19.516,19.929 C19.207,21.197 18.295,22.027 18.295,22.027 L18.295,22.027 L18.424,28.559 C20.253,27.084 21.979,25.161 23.613,23.29 L23.613,23.29 C25.564,21.058 27.756,18.567 28.926,16.031 L28.926,16.031 C30.264,13.135 30.465,8.375 29.042,5.679 L29.042,5.679 C28.346,4.363 27.305,3.234 26.126,2.303 L26.126,2.303 C25.05,1.453 23.436,0.556 21.576,0.556 L21.576,0.556 C21.126,0.556 20.661,0.608 20.186,0.727 L20.186,0.727 Z" id="path-3"></path>
    </defs>
    <g id="Landing" stroke="none" stroke-width="1" fill="none" fill-rule="evenodd">
        <g id="HOME-Alt" transform="translate(-76.000000, -2256.000000)">
            <g id="Group-11" transform="translate(76.000000, 2255.000000)">
                <path d="M50.4,9.2952 L50.4,6.2722 L37.779,6.2722 L37.779,9.2952 L42.513,9.2952 L42.513,23.8152 L45.677,23.8152 L45.677,9.2952 L50.4,9.2952 Z M60.291,12.8222 C59.552,11.9672 58.521,11.5452 57.209,11.5452 C56.564,11.5452 55.966,11.6622 55.416,11.9082 C54.853,12.1542 54.396,12.5062 54.045,12.9632 L54.045,6.1072 L50.974,6.1072 L50.974,23.8152 L54.045,23.8152 L54.045,17.0182 C54.045,16.2212 54.244,15.5762 54.63,15.0962 C55.017,14.6152 55.58,14.3812 56.318,14.3812 C56.927,14.3812 57.408,14.5922 57.771,15.0022 C58.134,15.4122 58.31,16.0452 58.31,16.9002 L58.31,23.8152 L61.392,23.8152 L61.392,16.2322 C61.392,14.8152 61.029,13.6782 60.291,12.8222 L60.291,12.8222 Z M70.122,21.1082 C69.56,21.4472 68.927,21.6112 68.224,21.6112 C67.345,21.6112 66.63,21.3652 66.103,20.8612 C65.564,20.3692 65.282,19.7012 65.271,18.8462 L73.626,18.8462 C73.732,18.3422 73.79,17.8152 73.79,17.2872 C73.79,16.1502 73.556,15.1542 73.087,14.2872 C72.607,13.4202 71.95,12.7402 71.095,12.2602 C70.239,11.7792 69.255,11.5452 68.153,11.5452 C66.982,11.5452 65.95,11.8152 65.071,12.3422 C64.181,12.8692 63.489,13.6192 63.009,14.5682 C62.517,15.5292 62.271,16.6432 62.271,17.9082 C62.271,19.1742 62.517,20.2872 63.021,21.2362 C63.513,22.1862 64.204,22.9242 65.107,23.4402 C65.997,23.9672 67.028,24.2252 68.2,24.2252 C69.525,24.2252 70.708,23.9082 71.728,23.2642 C72.747,22.6192 73.427,21.7872 73.743,20.7442 L71.294,19.7832 C71.071,20.3342 70.673,20.7682 70.122,21.1082 L70.122,21.1082 Z M66.173,14.8032 C66.689,14.3692 67.333,14.1472 68.107,14.1472 C68.857,14.1472 69.466,14.3572 69.935,14.7912 C70.392,15.2252 70.638,15.7992 70.673,16.5372 L65.294,16.5372 C65.353,15.8222 65.646,15.2362 66.173,14.8032 L66.173,14.8032 Z M89.809,20.7682 L82.544,20.7682 L82.544,6.2722 L79.368,6.2722 L79.368,23.8152 L89.809,23.8152 L89.809,20.7682 Z M90.934,9.1662 C91.297,9.5412 91.766,9.7292 92.34,9.7292 C92.914,9.7292 93.383,9.5412 93.746,9.1662 C94.109,8.7912 94.285,8.3342 94.285,7.8072 C94.285,7.2562 94.109,6.7992 93.746,6.4242 C93.383,6.0492 92.914,5.8612 92.34,5.8612 C91.766,5.8612 91.297,6.0492 90.934,6.4242 C90.559,6.7992 90.371,7.2562 90.371,7.8072 C90.371,8.3342 90.559,8.7912 90.934,9.1662 L90.934,9.1662 Z M90.852,23.8142 L93.852,23.8142 L93.852,11.9552 L90.852,11.9552 L90.852,23.8142 Z M100.8,9.2012 C101.117,8.8152 101.703,8.6272 102.558,8.6272 C102.898,8.6272 103.332,8.6502 103.859,8.6972 L103.859,6.1782 C103.285,5.9792 102.605,5.8852 101.843,5.8852 C100.402,5.8852 99.265,6.2952 98.445,7.1272 C97.613,7.9592 97.203,9.1432 97.203,10.6662 L97.203,11.9552 L94.496,11.9552 L94.496,14.6272 L97.203,14.6272 L97.203,23.8152 L100.32,23.8152 L100.32,14.6272 L103.859,14.6272 L103.859,11.9552 L100.32,11.9552 L100.32,10.9942 C100.32,10.1862 100.484,9.5882 100.8,9.2012 L100.8,9.2012 Z M111.698,21.1082 C111.136,21.4472 110.504,21.6112 109.8,21.6112 C108.921,21.6112 108.206,21.3652 107.679,20.8612 C107.14,20.3692 106.859,19.7012 106.847,18.8462 L115.202,18.8462 C115.308,18.3422 115.367,17.8152 115.367,17.2872 C115.367,16.1502 115.132,15.1542 114.664,14.2872 C114.183,13.4202 113.526,12.7402 112.671,12.2602 C111.816,11.7792 110.831,11.5452 109.73,11.5452 C108.558,11.5452 107.526,11.8152 106.648,12.3422 C105.757,12.8692 105.066,13.6192 104.585,14.5682 C104.093,15.5292 103.847,16.6432 103.847,17.9082 C103.847,19.1742 104.093,20.2872 104.597,21.2362 C105.089,22.1862 105.781,22.9242 106.683,23.4402 C107.573,23.9672 108.605,24.2252 109.776,24.2252 C111.101,24.2252 112.285,23.9082 113.304,23.2642 C114.323,22.6192 115.004,21.7872 115.32,20.7442 L112.871,19.7832 C112.648,20.3342 112.25,20.7682 111.698,21.1082 L111.698,21.1082 Z M107.75,14.8032 C108.265,14.3692 108.91,14.1472 109.683,14.1472 C110.433,14.1472 111.043,14.3572 111.511,14.7912 C111.968,15.2252 112.214,15.7992 112.25,16.5372 L106.871,16.5372 C106.929,15.8222 107.222,15.2362 107.75,14.8032 L107.75,14.8032 Z M123.206,6.2722 L119.526,6.2722 L125.749,16.8542 L125.749,23.8152 L128.842,23.8152 L128.842,16.8542 L135.112,6.2722 L131.456,6.2722 L127.307,13.4902 L123.206,6.2722 Z M132.756,14.5922 C132.205,15.5532 131.936,16.6542 131.936,17.8852 C131.936,19.1152 132.205,20.2172 132.756,21.1782 C133.296,22.1392 134.034,22.8892 134.983,23.4162 C135.921,23.9552 136.975,24.2252 138.147,24.2252 C139.33,24.2252 140.397,23.9552 141.334,23.4162 C142.26,22.8892 142.998,22.1392 143.538,21.1782 C144.076,20.2172 144.346,19.1152 144.346,17.8852 C144.346,16.6542 144.076,15.5532 143.549,14.5922 C143.022,13.6432 142.284,12.8932 141.358,12.3542 C140.421,11.8152 139.354,11.5452 138.171,11.5452 C136.987,11.5452 135.932,11.8152 134.983,12.3542 C134.034,12.8932 133.296,13.6432 132.756,14.5922 L132.756,14.5922 Z M135.967,20.4282 C135.417,19.7832 135.147,18.9512 135.147,17.9082 C135.147,16.8422 135.417,15.9752 135.967,15.3302 C136.506,14.6862 137.221,14.3572 138.123,14.3572 C139.025,14.3572 139.752,14.6862 140.303,15.3302 C140.854,15.9752 141.123,16.8302 141.123,17.8852 C141.123,18.9402 140.854,19.7832 140.303,20.4282 C139.752,21.0722 139.025,21.3892 138.123,21.3892 C137.233,21.3892 136.518,21.0722 135.967,20.4282 L135.967,20.4282 Z M155.42,11.9552 L152.35,11.9552 L152.35,18.7992 C152.35,19.5842 152.162,20.1932 151.787,20.6272 C151.412,21.0722 150.873,21.2952 150.17,21.2952 C149.572,21.2952 149.104,21.1082 148.752,20.7212 C148.4,20.3462 148.225,19.7722 148.225,18.9862 L148.225,11.9552 L145.154,11.9552 L145.154,19.8302 C145.154,21.1542 145.506,22.2212 146.221,23.0182 C146.936,23.8262 147.908,24.2252 149.139,24.2252 C149.9,24.2252 150.592,24.0612 151.213,23.7332 C151.822,23.4042 152.268,22.9712 152.537,22.4432 L152.537,23.8152 L155.42,23.8152 L155.42,11.9552 Z M164.677,23.0292 C165.954,23.7912 167.408,24.1782 169.06,24.1782 C170.314,24.1782 171.485,23.9552 172.552,23.4862 C173.618,23.0292 174.509,22.3852 175.235,21.5532 C175.962,20.7212 176.454,19.7722 176.712,18.6822 L173.548,17.5222 C173.302,18.5652 172.775,19.3972 171.966,20.0182 C171.146,20.6392 170.185,20.9552 169.083,20.9552 C168.11,20.9552 167.243,20.7092 166.493,20.2052 C165.732,19.7132 165.146,19.0222 164.735,18.1312 C164.325,17.2522 164.114,16.2212 164.114,15.0492 C164.114,13.8652 164.325,12.8342 164.735,11.9322 C165.146,11.0412 165.732,10.3502 166.493,9.8572 C167.243,9.3772 168.11,9.1312 169.083,9.1312 C170.185,9.1312 171.146,9.4362 171.966,10.0572 C172.775,10.6782 173.302,11.5102 173.548,12.5532 L176.712,11.3812 C176.442,10.2912 175.939,9.3302 175.212,8.4982 C174.485,7.6662 173.595,7.0332 172.528,6.5762 C171.462,6.1312 170.314,5.9082 169.083,5.9082 C167.454,5.9082 165.989,6.2832 164.712,7.0452 C163.435,7.8072 162.439,8.8852 161.724,10.2682 C161.009,11.6502 160.658,13.2442 160.658,15.0492 C160.658,16.8422 161.009,18.4362 161.712,19.8182 C162.416,21.2012 163.4,22.2682 164.677,23.0292 L164.677,23.0292 Z M186.31,12.7292 C185.454,11.9432 184.259,11.5452 182.724,11.5452 C181.317,11.5452 180.146,11.8612 179.208,12.5062 C178.259,13.1502 177.696,14.0652 177.497,15.2482 L180.11,15.9162 C180.192,15.3652 180.45,14.9202 180.907,14.5802 C181.353,14.2402 181.915,14.0762 182.607,14.0762 C183.216,14.0762 183.696,14.2172 184.036,14.4862 C184.376,14.7562 184.552,15.1312 184.552,15.6112 C184.552,16.3612 184.107,16.7362 183.204,16.7362 L181.376,16.7362 C180.075,16.7362 179.044,17.0762 178.259,17.7682 C177.474,18.4592 177.087,19.3732 177.087,20.5222 C177.087,21.6472 177.45,22.5492 178.189,23.2172 C178.927,23.8852 179.888,24.2252 181.071,24.2252 C181.88,24.2252 182.607,24.0612 183.251,23.7442 C183.896,23.4282 184.376,22.9832 184.692,22.4202 L184.857,23.8152 L187.575,23.8152 L187.575,16.1622 C187.575,14.6742 187.153,13.5252 186.31,12.7292 L186.31,12.7292 Z M184.528,18.8462 L184.528,19.3262 C184.528,20.0412 184.317,20.6272 183.884,21.0612 C183.45,21.5062 182.841,21.7292 182.079,21.7292 C181.482,21.7292 181.013,21.6002 180.673,21.3422 C180.333,21.0842 180.157,20.7212 180.157,20.2642 C180.157,19.8182 180.31,19.4672 180.626,19.2212 C180.942,18.9752 181.411,18.8462 182.032,18.8462 L184.528,18.8462 Z M198.133,12.8222 C197.395,11.9672 196.364,11.5452 195.051,11.5452 C194.337,11.5452 193.68,11.6862 193.094,11.9792 C192.497,12.2722 192.04,12.6932 191.7,13.2562 L191.571,11.9552 L188.817,11.9552 L188.817,23.8152 L191.887,23.8152 L191.887,16.9472 C191.887,16.1622 192.087,15.5412 192.473,15.0722 C192.86,14.6152 193.422,14.3812 194.161,14.3812 C194.77,14.3812 195.251,14.5802 195.614,14.9902 C195.977,15.4002 196.153,16.0222 196.153,16.8302 L196.153,23.8152 L199.235,23.8152 L199.235,16.2322 C199.235,14.8152 198.872,13.6782 198.133,12.8222 L198.133,12.8222 Z M213.473,11.3112 L216.567,10.5142 C216.367,9.1082 215.711,7.9942 214.621,7.1622 C213.52,6.3422 212.16,5.9322 210.543,5.9322 C209.395,5.9322 208.363,6.1432 207.461,6.5762 C206.559,7.0102 205.844,7.6312 205.34,8.4282 C204.824,9.2362 204.567,10.1742 204.567,11.2402 C204.567,12.5062 204.953,13.5492 205.715,14.3812 C206.477,15.2132 207.684,15.8462 209.348,16.2562 L211.668,16.8302 C212.969,17.1702 213.613,17.8502 213.613,18.8692 C213.613,19.5722 213.356,20.1112 212.84,20.4982 C212.324,20.8852 211.621,21.0842 210.742,21.0842 C209.746,21.0842 208.949,20.8262 208.34,20.3222 C207.731,19.8182 207.414,19.1502 207.379,18.3422 L204.238,18.8222 C204.332,19.8652 204.66,20.7792 205.223,21.5762 C205.774,22.3852 206.524,23.0062 207.473,23.4402 C208.422,23.8852 209.512,24.1082 210.766,24.1082 C212.008,24.1082 213.098,23.8852 214.047,23.4282 C214.996,22.9832 215.723,22.3502 216.25,21.5292 C216.766,20.7212 217.024,19.7722 217.024,18.7052 C217.024,17.4862 216.672,16.4432 215.969,15.5762 C215.266,14.7212 214.188,14.1112 212.734,13.7602 L210.356,13.1622 C209.57,12.9512 208.973,12.6932 208.563,12.3772 C208.152,12.0612 207.953,11.6152 207.953,11.0412 C207.953,10.4082 208.188,9.8932 208.668,9.4942 C209.137,9.1082 209.758,8.9082 210.52,8.9082 C211.352,8.9082 212.043,9.1192 212.57,9.5532 C213.098,9.9862 213.391,10.5722 213.473,11.3112 L213.473,11.3112 Z M226.597,12.7292 C225.742,11.9432 224.546,11.5452 223.011,11.5452 C221.605,11.5452 220.433,11.8612 219.496,12.5062 C218.546,13.1502 217.984,14.0652 217.785,15.2482 L220.398,15.9162 C220.48,15.3652 220.738,14.9202 221.195,14.5802 C221.64,14.2402 222.203,14.0762 222.894,14.0762 C223.504,14.0762 223.984,14.2172 224.324,14.4862 C224.664,14.7562 224.839,15.1312 224.839,15.6112 C224.839,16.3612 224.394,16.7362 223.492,16.7362 L221.664,16.7362 C220.363,16.7362 219.332,17.0762 218.546,17.7682 C217.761,18.4592 217.375,19.3732 217.375,20.5222 C217.375,21.6472 217.738,22.5492 218.476,23.2172 C219.214,23.8852 220.175,24.2252 221.359,24.2252 C222.168,24.2252 222.894,24.0612 223.539,23.7442 C224.183,23.4282 224.664,22.9832 224.98,22.4202 L225.144,23.8152 L227.863,23.8152 L227.863,16.1622 C227.863,14.6742 227.441,13.5252 226.597,12.7292 L226.597,12.7292 Z M224.816,18.8462 L224.816,19.3262 C224.816,20.0412 224.605,20.6272 224.171,21.0612 C223.738,21.5062 223.129,21.7292 222.367,21.7292 C221.769,21.7292 221.3,21.6002 220.961,21.3422 C220.621,21.0842 220.445,20.7212 220.445,20.2642 C220.445,19.8182 220.597,19.4672 220.914,19.2212 C221.23,18.9752 221.699,18.8462 222.32,18.8462 L224.816,18.8462 Z M230.827,11.9552 L227.417,11.9552 L232.105,23.8152 L235.081,23.8152 L239.827,11.9552 L236.499,11.9552 L234.284,18.0492 L234.12,18.5532 C233.909,19.0802 233.745,19.6432 233.616,20.2172 C233.558,19.9002 233.464,19.5612 233.347,19.2092 L233.212,18.8322 C233.164,18.6922 233.133,18.5892 233.112,18.5292 L233.069,18.4362 C233.036,18.3512 232.991,18.2212 232.937,18.0492 L230.827,11.9552 Z M247.046,21.1082 C246.483,21.4472 245.851,21.6112 245.148,21.6112 C244.269,21.6112 243.554,21.3652 243.026,20.8612 C242.487,20.3692 242.206,19.7012 242.194,18.8462 L250.55,18.8462 C250.655,18.3422 250.714,17.8152 250.714,17.2872 C250.714,16.1502 250.48,15.1542 250.011,14.2872 C249.53,13.4202 248.874,12.7402 248.019,12.2602 C247.163,11.7792 246.179,11.5452 245.077,11.5452 C243.905,11.5452 242.874,11.8152 241.995,12.3422 C241.105,12.8692 240.413,13.6192 239.933,14.5682 C239.441,15.5292 239.194,16.6432 239.194,17.9082 C239.194,19.1742 239.441,20.2872 239.944,21.2362 C240.437,22.1862 241.128,22.9242 242.03,23.4402 C242.921,23.9672 243.952,24.2252 245.124,24.2252 C246.448,24.2252 247.632,23.9082 248.651,23.2642 C249.671,22.6192 250.351,21.7872 250.667,20.7442 L248.218,19.7832 C247.995,20.3342 247.597,20.7682 247.046,21.1082 L247.046,21.1082 Z M243.097,14.8032 C243.612,14.3692 244.257,14.1472 245.03,14.1472 C245.78,14.1472 246.39,14.3572 246.858,14.7912 C247.316,15.2252 247.562,15.7992 247.597,16.5372 L242.218,16.5372 C242.276,15.8222 242.569,15.2362 243.097,14.8032 L243.097,14.8032 Z" id="Fill-1" fill="#fff"></path>
                <g id="Group-5" transform="translate(37.000000, 5.444400)">
                    <mask id="mask-2" fill="white">
                        <use xlink:href="#path-1"></use>
                    </mask>
                    <g id="Clip-4"></g>
                    <polygon id="Fill-3" fill="#fff" mask="url(#mask-2)" points="-4.221 23.78 218.714 23.78 218.714 -4.583 -4.221 -4.583"></polygon>
                </g>
                <path d="M29.0421,6.1229 C28.3461,4.8069 27.3061,3.6779 26.1261,2.7469 C24.7891,1.6909 22.6241,0.5629 20.1851,1.1709 C17.5951,1.8179 16.5631,4.0369 14.9861,5.8979 C14.1011,4.4999 13.8661,2.5809 12.4731,1.7909 C11.4861,1.2319 9.6431,1.0649 8.1301,1.1709 C5.6201,1.3489 3.5901,2.5929 2.4741,3.7589 C0.8981,5.4039 -0.3169,7.9689 0.0741,11.2999 C0.5731,15.5579 3.2931,18.2459 5.9021,21.2039 C7.1921,22.6649 8.2121,24.2269 9.4431,25.5359 C10.6471,26.8129 11.7401,28.0609 12.9091,29.2289 L12.9311,29.2489 C12.9961,29.3199 13.0551,29.3789 13.1171,29.4439 C13.6971,26.8489 14.4441,23.3969 14.4611,22.7899 C14.4891,21.7959 13.4391,22.1679 12.2341,20.9959 C11.5771,20.3559 10.2301,18.9469 9.4941,18.5149 C8.3301,17.8329 8.9601,17.3079 9.9901,17.5059 C11.1911,17.7379 11.6231,18.4349 12.1741,18.0729 C12.5481,17.8279 13.0681,16.6959 12.9441,15.9019 C12.8661,15.4179 12.2041,14.1029 11.6791,12.6059 C11.1921,11.2209 11.0031,9.8819 11.6681,9.8069 C12.7041,9.6929 12.7181,10.8729 13.2601,12.1259 C13.9711,13.7619 14.8231,15.4299 14.8231,15.4299 C14.8231,15.4299 14.7741,13.3289 14.9591,11.6229 C15.0891,10.4149 15.0001,8.6959 15.5621,8.6959 C15.5721,8.6959 15.5831,8.6959 15.5931,8.6979 C16.8121,8.8299 16.6021,10.3899 16.6421,11.6329 C16.6951,13.2599 16.7101,15.5089 16.7101,15.5089 C16.7101,15.5089 17.2751,14.1119 17.8721,12.4399 C18.3091,11.2189 18.3601,10.0559 19.1851,10.1609 C19.9371,10.2559 19.5841,11.5889 19.3011,12.8699 C18.9691,14.3669 18.8531,15.7529 18.8531,15.7529 C18.8531,15.7529 19.7261,14.9309 20.2711,13.9239 C20.7341,13.0669 20.8981,13.0379 21.2821,13.3069 C21.5541,13.4979 21.6401,13.6519 21.1901,14.5079 C20.7101,15.4269 20.3311,16.2719 20.1771,16.7939 C20.0541,17.2139 19.7301,19.4849 19.5161,20.3739 C19.2081,21.6419 18.2951,22.4719 18.2951,22.4719 L18.4241,29.0039 C20.2531,27.5289 21.9801,25.6049 23.6121,23.7349 C25.5641,21.5029 27.7561,19.0109 28.9261,16.4759 C30.2641,13.5799 30.4651,8.8189 29.0421,6.1229" id="Fill-6" fill="#fff"></path>
                <g id="Group-10" transform="translate(0.000000, 0.444400)">
                    <mask id="mask-4" fill="white">
                        <use xlink:href="#path-3"></use>
                    </mask>
                    <g id="Clip-9"></g>
                    <polygon id="Fill-8" fill="#fff" mask="url(#mask-4)" points="-5 33.999 35.023 33.999 35.023 -4.445 -5 -4.445"></polygon>
                </g>
            </g>
        </g>
    </g>
</svg>