<svg xmlns="http://www.w3.org/2000/svg" xmlns:xlink="http://www.w3.org/1999/xlink" width="129" height="64" viewBox="0 0 129 64">
    <defs>
        <path id="prefix__a" d="M0 0.395L128.88 0.395 128.88 15.12 0 15.12z"/>
    </defs>
    <g fill="none" fill-rule="evenodd">
        <path fill="#7B7B7B" d="M12.544 38.486c0 1.725 1.46 3.042 3.256 3.042 1.707 0 3.397-1.263 3.397-3.042V31.71l.889-.907h-2.74l.907.907v6.776c0 1.21-.96 2.17-2.17 2.17-1.226 0-2.31-.942-2.31-2.17V31.71l.906-.907h-3.042l.907.907v6.776zM24.8 40.39v-7.86l5.655 8.786h.338V31.71l.907-.907H28.96l.907.907v6.67l-4.73-7.577h-2.17l.889.907v8.68l-.889.906h2.74l-.908-.907zm10.208-9.586l.835.835v8.822l-.835.836h2.827l-.835-.836v-8.822l.835-.835h-2.827zm8.59 0h-2.97l.853.835 2.953 9.658h.533l3.042-9.658.853-.835h-2.525l.818.818-2.223 7.256-2.152-7.256.818-.818zm14.05 10.493v-1.921l-1.12 1.138h-3.184v-4.41h2.365l.836.836v-2.455l-.836.837h-2.365v-3.735h3.183l1.12 1.12v-1.903H51.37l.818.835v8.822l-.818.836h6.278zm5.158-.836v-4.055h1.582l2.543 4.89h1.744l-.82-.835-2.346-4.304c1.173-.355 1.975-1.458 1.975-2.454 0-1.779-1.655-2.899-3.399-2.899H60.83l.818.835v8.822l-.818.836h2.81l-.835-.836zm0-8.874h1.28c1.121 0 2.01.96 2.01 2.098 0 1.085-.908 1.938-2.01 1.938h-1.28v-4.036zM76.73 38.38c0-1.032-.48-1.673-.979-2.01l-2.134-1.548c-.765-.55-1.156-1.263-1.156-1.796 0-1.103.943-1.494 1.512-1.494.302 0 .516.125.675.125l.925.996.979-1.459-2.08-.39c-.143-.037-.232-.054-.5-.054-1.832 0-2.667 1.565-2.667 2.579 0 .8.41 1.707 1.352 2.4l2.152 1.548c.586.41.747 1.014.747 1.529 0 .89-.552 1.85-1.743 1.85-.285 0-.534-.054-.73-.143l-.996-1.173-.907 1.636 2.01.391s.338.072.623.072c1.263 0 2.917-1.068 2.917-3.06zm3.485-7.577l.835.835v8.822l-.835.836h2.828l-.836-.836v-8.822l.836-.835h-2.828zm9.96 9.657v-8.874h1.991l1.121 1.12v-1.903h-7.38v1.903l1.139-1.12h1.973v8.874l-.82.836h2.811l-.836-.836zm5.975-8.822l2.65 4.785v4.037l-.835.836h2.827l-.836-.836v-4.037l2.703-4.766.872-.854h-2.596l.817.818-2.205 3.931-2.099-3.931.82-.818h-2.971l.853.835zm15.927 3.034c-.383 0-.988.177-1.592.531-1.018.605-2.123 1.976-2.123 4.04 0 1.03.487 2.18 1.857 2.18.649 0 1.578-.427 2.197-.986.973-.886 1.547-2.404 1.547-3.715 0-1.224-.648-2.05-1.886-2.05zm-2.522 4.216c0-2.18 1.106-3.36 1.563-3.552.133-.059.34-.118.487-.118.737 0 1.164.56 1.164 1.695.03 1.916-.972 3.656-1.592 3.862-.118.045-.31.103-.457.103-.824 0-1.165-.883-1.165-1.99zm6.625-3.862l-.399.384.045.147h1.224c-.193 1.327-.37 2.476-.65 4.333-.397 2.757-.737 3.73-1.016 3.966-.089.089-.237.132-.37.132-.176 0-.455-.132-.648-.22-.177-.088-.325.014-.412.102-.118.134-.252.34-.252.502 0 .295.384.442.635.442.28 0 .987-.236 1.621-1.016.501-.62 1.18-2.05 1.754-5.382.104-.619.222-1.237.472-2.859l1.504-.147.324-.384h-1.74c.442-2.727.81-3.552 1.445-3.552.442 0 .81.177 1.135.487.103.102.266.102.412-.016.119-.103.296-.34.296-.545.014-.294-.383-.62-.884-.62-.856 0-1.755.503-2.374 1.24-.576.692-.959 1.812-1.164 3.006h-.958z"/>
        <g transform="translate(0 48.372)">
            <mask id="prefix__b" fill="#fff">
                <use xlink:href="#prefix__a"/>
            </mask>
            <path fill="#7B7B7B" d="M5.833 14.81L9.06 4.602l3.132 10.206h.717l4.088-12.98L18.144.707h-3.395l1.1 1.1-2.989 9.752-2.893-9.753 1.1-1.1H7.076L8.2 1.83l.287.931-2.701 8.797-2.892-9.753 1.1-1.1H0L1.147 1.83l3.968 12.98h.718zm14.02-1.1l1.028-2.988h4.661l.98 2.988-1.1 1.1h3.993l-1.124-1.148L23.894.706h-.718l-4.47 12.956-1.148 1.147h3.395l-1.1-1.1zm3.395-9.873l1.937 5.832H21.24l2.008-5.832zm15.42 7.053c0-1.387-.646-2.248-1.315-2.703l-2.868-2.079c-1.028-.74-1.554-1.697-1.554-2.414 0-1.482 1.267-2.009 2.032-2.009.406 0 .693.169.909.169l1.242 1.338 1.314-1.96-2.796-.526c-.191-.048-.31-.071-.67-.071-2.461 0-3.584 2.103-3.584 3.465 0 1.076.549 2.295 1.816 3.227l2.893 2.08c.788.55 1.004 1.363 1.004 2.056 0 1.195-.741 2.487-2.343 2.487-.383 0-.717-.073-.98-.193l-1.34-1.576-1.218 2.198 2.702.526s.453.096.836.096c1.697 0 3.92-1.434 3.92-4.111zm6-3.156h5.928v5.951l-1.124 1.124h3.801l-1.124-1.124V1.83L53.273.706h-3.8l1.123 1.124v4.853h-5.928V1.83L45.79.706h-3.776l1.099 1.124v11.855l-1.1 1.124h3.777l-1.123-1.124V7.734zm22.536 5.856V3.025l7.5 11.778.556.004V1.925L76.48.705h-3.68l1.217 1.22v8.965L67.658.706h-2.917l1.196 1.219V13.59l-1.196 1.22h3.682l-1.22-1.22zM87.34 8.403v4.542c-.333.335-1.003 1.005-2.318 1.005-3.13 0-4.71-3.156-4.71-6.192 0-3.06 1.984-6.192 4.71-6.192.717 0 1.242.168 1.72.67l1.555 1.53V1.326c-.837-.43-1.673-.813-3.275-.813-3.848 0-6.55 3.443-6.55 7.244 0 3.73 2.702 7.243 6.55 7.243 2.175 0 3.107-.527 3.872-1.028v-5.57l1.1-1.124h-3.776l1.122 1.124zm10.284 5.282V1.758h2.677l1.507 1.506V.706h-9.921v2.558l1.53-1.506h2.653v11.927l-1.1 1.124h3.778l-1.124-1.124zm5.603-5.927c0 3.585 2.032 7.362 5.641 7.362 3.632 0 5.666-3.777 5.666-7.362 0-3.586-2.034-7.363-5.666-7.363-3.61 0-5.641 3.777-5.641 7.363zm5.641 6.287c-2.82 0-3.8-3.371-3.8-6.287 0-2.917.98-6.287 3.8-6.287 2.845 0 3.825 3.37 3.825 6.287 0 2.916-.98 6.287-3.825 6.287zm10.737-.455V3.025l7.463 11.792h.593V1.925l1.219-1.22h-3.682l1.22 1.22v8.965L120.06.706h-2.917l1.196 1.219V13.59l-1.196 1.22h3.682l-1.22-1.22z" mask="url(#prefix__b)"/>
        </g>
        <path fill="#7B7B7B" d="M57.078 49.078L58.201 50.202 58.201 62.058 57.078 63.182 60.878 63.182 59.755 62.058 59.755 50.202 60.878 49.078zM48.857 0L48.857 3.579 51.124 3.579 55.105 19.571 60.687 19.571 63.341 9.563 65.884 19.571 71.468 19.571 75.669 3.579 77.825 3.579 77.825 0 70.141 0 70.141 3.579 72.684 3.579 69.919 13.987 66.492 0 62.953 0 59.194 14.097 56.486 3.579 59.251 3.579 59.251 0z"/>
    </g>
</svg>
